<svg width="18" height="18" viewBox="0 0 18 18" fill="none" xmlns="http://www.w3.org/2000/svg">
<path d="M9 17C13.4183 17 17 13.4183 17 9C17 4.58172 13.4183 1 9 1C4.58172 1 1 4.58172 1 9C1 13.4183 4.58172 17 9 17Z" stroke="#777777" stroke-linecap="round" stroke-linejoin="round"/>
<path d="M8.99998 14.0909C9.40164 14.0909 9.72725 13.7653 9.72725 13.3636C9.72725 12.962 9.40164 12.6364 8.99998 12.6364C8.59832 12.6364 8.27271 12.962 8.27271 13.3636C8.27271 13.7653 8.59832 14.0909 8.99998 14.0909Z" stroke="#777777"/>
<path d="M7.43854 5.04358C8.87854 4.40721 10.7418 4.48285 11.3782 5.51267C12.0145 6.54249 11.5753 7.7403 10.4844 8.66467C9.39345 9.58903 8.99999 10.0909 8.99999 10.8181" stroke="#777777" stroke-linecap="round" stroke-linejoin="round"/>
</svg>
