<svg width="22" height="22" viewBox="0 0 22 22" fill="none" xmlns="http://www.w3.org/2000/svg">
<path fill-rule="evenodd" clip-rule="evenodd" d="M19 2H14.62L13.89 0.55C13.7206 0.21372 13.3766 0.0011413 13 0H9C8.62344 0.0011413 8.27945 0.21372 8.11 0.55L7.39 2H3C2.44772 2 2 2.44772 2 3C2 3.55228 2.44772 4 3 4H4L5 21.06C5.03178 21.5887 5.47032 22.001 6 22H16C16.5297 22.001 16.9682 21.5887 17 21.06L18 4H19C19.5523 4 20 3.55228 20 3C20 2.44772 19.5523 2 19 2ZM15.05 20H7L6.06 4H15.94L15.05 20Z" fill="#585B58"/>
<path fill-rule="evenodd" clip-rule="evenodd" d="M19 2H14.62L13.89 0.55C13.7206 0.21372 13.3766 0.0011413 13 0H9C8.62344 0.0011413 8.27945 0.21372 8.11 0.55L7.39 2H3C2.44772 2 2 2.44772 2 3C2 3.55228 2.44772 4 3 4H4L5 21.06C5.03178 21.5887 5.47032 22.001 6 22H16C16.5297 22.001 16.9682 21.5887 17 21.06L18 4H19C19.5523 4 20 3.55228 20 3C20 2.44772 19.5523 2 19 2ZM15.05 20H7L6.06 4H15.94L15.05 20Z" fill="black" fill-opacity="0.2"/>
</svg>
