<svg width="64" height="64" viewBox="0 0 64 64" fill="none" xmlns="http://www.w3.org/2000/svg">
<rect x="0.5" y="9.5" width="63" height="45" rx="5.5" fill="white" stroke="#DCDEE1"/>
<mask id="mask0_1253_14150" style="mask-type:alpha" maskUnits="userSpaceOnUse" x="1" y="10" width="62" height="44">
<rect x="1" y="10" width="62" height="44" rx="5" fill="#EDEFF2"/>
</mask>
<g mask="url(#mask0_1253_14150)">
<rect x="1" y="10" width="62" height="6" fill="#EDEFF2"/>
</g>
<rect x="3" y="26" width="58" height="3" rx="1" fill="#DCDEE1"/>
<rect x="3" y="33" width="48" height="3" rx="1" fill="#DCDEE1"/>
<rect x="3" y="40" width="40" height="3" rx="1" fill="#DCDEE1"/>
<mask id="path-7-inside-1_1253_14150" fill="white">
<path fill-rule="evenodd" clip-rule="evenodd" d="M33 22C30.2386 22 28 24.2386 28 27V34.4C28 37.1614 30.2386 39.4 33 39.4H33.8L35.5786 41.1786C35.9691 41.5691 36.6023 41.5691 36.9928 41.1786L38.7714 39.4H52C54.7614 39.4 57 37.1614 57 34.4V27C57 24.2386 54.7614 22 52 22H33Z"/>
</mask>
<path fill-rule="evenodd" clip-rule="evenodd" d="M33 22C30.2386 22 28 24.2386 28 27V34.4C28 37.1614 30.2386 39.4 33 39.4H33.8L35.5786 41.1786C35.9691 41.5691 36.6023 41.5691 36.9928 41.1786L38.7714 39.4H52C54.7614 39.4 57 37.1614 57 34.4V27C57 24.2386 54.7614 22 52 22H33Z" fill="white"/>
<path fill-rule="evenodd" clip-rule="evenodd" d="M33 22C30.2386 22 28 24.2386 28 27V34.4C28 37.1614 30.2386 39.4 33 39.4H33.8L35.5786 41.1786C35.9691 41.5691 36.6023 41.5691 36.9928 41.1786L38.7714 39.4H52C54.7614 39.4 57 37.1614 57 34.4V27C57 24.2386 54.7614 22 52 22H33Z" fill="#4F5AFF" fill-opacity="0.2"/>
<path d="M33.8 39.4L34.5071 38.6929L34.2142 38.4H33.8V39.4ZM35.5786 41.1786L36.2857 40.4715L36.2857 40.4715L35.5786 41.1786ZM38.7714 39.4V38.4H38.3572L38.0643 38.6929L38.7714 39.4ZM29 27C29 24.7909 30.7909 23 33 23V21C29.6863 21 27 23.6863 27 27H29ZM29 34.4V27H27V34.4H29ZM33 38.4C30.7909 38.4 29 36.6091 29 34.4H27C27 37.7137 29.6863 40.4 33 40.4V38.4ZM33.8 38.4H33V40.4H33.8V38.4ZM36.2857 40.4715L34.5071 38.6929L33.0929 40.1071L34.8715 41.8857L36.2857 40.4715ZM36.2857 40.4715L36.2857 40.4715L34.8715 41.8857C35.6526 42.6668 36.9189 42.6668 37.6999 41.8857L36.2857 40.4715ZM38.0643 38.6929L36.2857 40.4715L37.6999 41.8857L39.4785 40.1071L38.0643 38.6929ZM52 38.4H38.7714V40.4H52V38.4ZM56 34.4C56 36.6091 54.2091 38.4 52 38.4V40.4C55.3137 40.4 58 37.7137 58 34.4H56ZM56 27V34.4H58V27H56ZM52 23C54.2091 23 56 24.7909 56 27H58C58 23.6863 55.3137 21 52 21V23ZM33 23H52V21H33V23Z" fill="#4F5AFF" mask="url(#path-7-inside-1_1253_14150)"/>
</svg>
