<svg width="32" height="32" viewBox="0 0 32 32" fill="none" xmlns="http://www.w3.org/2000/svg">
<path d="M29.3332 10.6667H18.6666V4C18.6665 3.74765 18.5949 3.5005 18.46 3.28725C18.325 3.07401 18.1323 2.90344 17.9043 2.79536C17.6763 2.68727 17.4223 2.64612 17.1718 2.67669C16.9213 2.70725 16.6846 2.80827 16.4892 2.968L1.82258 14.968C1.66971 15.0931 1.54654 15.2505 1.46196 15.429C1.37737 15.6075 1.3335 15.8025 1.3335 16C1.3335 16.1975 1.37737 16.3925 1.46196 16.571C1.54654 16.7495 1.66971 16.9069 1.82258 17.032L16.4892 29.032C16.7274 29.2268 17.0256 29.3333 17.3332 29.3333C17.5311 29.3328 17.7263 29.2872 17.9039 29.2C18.1313 29.0923 18.3236 28.9225 18.4585 28.7101C18.5935 28.4978 18.6656 28.2516 18.6666 28V21.3333H29.3332C29.6869 21.3333 30.026 21.1929 30.2761 20.9428C30.5261 20.6928 30.6666 20.3536 30.6666 20V12C30.6666 11.6464 30.5261 11.3072 30.2761 11.0572C30.026 10.8071 29.6869 10.6667 29.3332 10.6667Z" fill="#777777"/>
</svg>
