<svg width="24" height="24" viewBox="0 0 24 24" fill="none" xmlns="http://www.w3.org/2000/svg">
<g clip-path="url(#clip0_1_93)">
<path d="M20.872 13.453C20.9538 12.9729 20.9966 12.487 21 12C20.9966 11.513 20.9538 11.0271 20.872 10.547L22.972 8.518C23.1321 8.36305 23.2359 8.15906 23.2669 7.9384C23.2979 7.71774 23.2543 7.49305 23.143 7.3L21.643 4.7C21.5302 4.50766 21.3569 4.35811 21.1501 4.27471C20.9433 4.1913 20.7147 4.17875 20.5 4.239L17.7 5.039C16.9419 4.42153 16.0884 3.93146 15.173 3.588L14.47 0.758C14.416 0.541568 14.2912 0.349398 14.1155 0.212049C13.9397 0.0747014 13.7231 6.1623e-05 13.5 0H10.5C10.2769 6.1623e-05 10.0603 0.0747014 9.88454 0.212049C9.70878 0.349398 9.58398 0.541568 9.53 0.758L8.823 3.588C7.90898 3.93185 7.05688 4.4219 6.3 5.039L3.5 4.239C3.28532 4.17892 3.05679 4.19156 2.85004 4.27495C2.64329 4.35834 2.46994 4.50779 2.357 4.7L0.857004 7.3C0.745482 7.49316 0.701736 7.71805 0.73272 7.93893C0.763705 8.1598 0.867641 8.36398 1.028 8.519L3.128 10.548C3.04629 11.0278 3.00349 11.5133 3 12C3.00343 12.487 3.04624 12.9729 3.128 13.453L1.028 15.482C0.867876 15.6369 0.764086 15.8409 0.733106 16.0616C0.702127 16.2823 0.745733 16.5069 0.857004 16.7L2.357 19.3C2.44486 19.4522 2.57125 19.5785 2.72345 19.6663C2.87566 19.754 3.0483 19.8002 3.224 19.8C3.31695 19.7996 3.40943 19.7868 3.499 19.762L6.299 18.962C7.0571 19.5795 7.91057 20.0695 8.826 20.413L9.533 23.243C9.58705 23.4587 9.71148 23.6503 9.88661 23.7874C10.0617 23.9245 10.2776 23.9993 10.5 24H13.5C13.7231 23.9999 13.9397 23.9253 14.1155 23.788C14.2912 23.6506 14.416 23.4584 14.47 23.242L15.177 20.412C16.091 20.0681 16.9431 19.5781 17.7 18.961L20.5 19.761C20.5896 19.7858 20.6821 19.7986 20.775 19.799C20.9507 19.7992 21.1234 19.753 21.2756 19.6653C21.4278 19.5775 21.5542 19.4512 21.642 19.299L23.142 16.699C23.2535 16.5058 23.2973 16.2809 23.2663 16.0601C23.2353 15.8392 23.1314 15.635 22.971 15.48L20.872 13.453ZM12 16C11.2089 16 10.4355 15.7654 9.77772 15.3259C9.11993 14.8864 8.60724 14.2616 8.30449 13.5307C8.00174 12.7998 7.92252 11.9956 8.07686 11.2196C8.2312 10.4437 8.61217 9.73098 9.17158 9.17157C9.73099 8.61216 10.4437 8.2312 11.2196 8.07686C11.9956 7.92252 12.7998 8.00173 13.5307 8.30448C14.2616 8.60723 14.8864 9.11992 15.3259 9.77772C15.7654 10.4355 16 11.2089 16 12C16 13.0609 15.5786 14.0783 14.8284 14.8284C14.0783 15.5786 13.0609 16 12 16Z" fill="#777777"/>
</g>
<defs>
<clipPath id="clip0_1_93">
<rect width="24" height="24" fill="white"/>
</clipPath>
</defs>
</svg>
