<svg viewBox="0 0 24 24" fill="none" xmlns="http://www.w3.org/2000/svg">
<path d="M14.293 22.707C14.4806 22.8945 14.7349 22.9998 15 22.9998C15.2652 22.9998 15.5195 22.8945 15.707 22.707L18.707 19.707C18.8945 19.5195 18.9998 19.2652 18.9998 19C18.9998 18.7349 18.8945 18.4806 18.707 18.293L12.414 12L18.707 5.70703C18.8945 5.5195 18.9998 5.26519 18.9998 5.00003C18.9998 4.73487 18.8945 4.48056 18.707 4.29303L15.707 1.29303C15.5195 1.10556 15.2652 1.00024 15 1.00024C14.7349 1.00024 14.4806 1.10556 14.293 1.29303L4.29303 11.293C4.10556 11.4806 4.00024 11.7349 4.00024 12C4.00024 12.2652 4.10556 12.5195 4.29303 12.707L14.293 22.707Z" fill="#A6A6A6"/>
</svg>
