<svg viewBox="0 0 24 24" fill="none" xmlns="http://www.w3.org/2000/svg">
<g>
<path d="M-9.17939e-07 3L-1.31134e-07 21C-9.63552e-08 21.7956 0.31607 22.5587 0.87868 23.1213C1.44129 23.6839 2.20435 24 3 24L16 24C16.7956 24 17.5587 23.6839 18.1213 23.1213C18.6839 22.5587 19 21.7956 19 21L19 17L17 17L17 21C17 21.2652 16.8946 21.5196 16.7071 21.7071C16.5196 21.8946 16.2652 22 16 22L6 22L6 2L16 2C16.2652 2 16.5196 2.10536 16.7071 2.29289C16.8946 2.48043 17 2.73478 17 3L17 7L19 7L19 3C19 2.20435 18.6839 1.44129 18.1213 0.878678C17.5587 0.31607 16.7956 -7.34161e-07 16 -6.99382e-07L3 -1.31134e-07C2.20435 -9.63552e-08 1.44129 0.31607 0.878679 0.878679C0.31607 1.44129 -9.52718e-07 2.20435 -9.17939e-07 3Z" fill="#A6A6A6"/>
<path d="M8.37498 11.2191C8.26311 11.3162 8.1734 11.4361 8.11191 11.5709C8.05043 11.7056 8.01862 11.852 8.01862 12.0001C8.01862 12.1482 8.05043 12.2946 8.11191 12.4293C8.1734 12.5641 8.26311 12.684 8.37498 12.7811L13.375 16.7811C13.5221 16.8989 13.6994 16.9727 13.8867 16.994C14.0739 17.0154 14.2633 16.9834 14.4332 16.9018C14.603 16.8202 14.7463 16.6922 14.8466 16.5327C14.9469 16.3732 15 16.1885 15 16.0001L15 13.0001L23 13.0001C23.2652 13.0001 23.5195 12.8948 23.7071 12.7072C23.8946 12.5197 24 12.2653 24 12.0001C24 11.7349 23.8946 11.4805 23.7071 11.293C23.5195 11.1055 23.2652 11.0001 23 11.0001L15 11.0001L15 8.00011C15 7.81168 14.9469 7.62706 14.8466 7.46753C14.7463 7.30801 14.603 7.18006 14.4332 7.09843C14.2633 7.01681 14.0739 6.98483 13.8867 7.00618C13.6994 7.02753 13.5221 7.10134 13.375 7.21911L8.37498 11.2191Z" fill="#A6A6A6"/>
</g>
</svg>
