<svg viewBox="0 0 24 24" fill="none" xmlns="http://www.w3.org/2000/svg">
<path d="M20 1.5H4C3.33696 1.5 2.70107 1.76339 2.23223 2.23223C1.76339 2.70107 1.5 3.33696 1.5 4V20C1.5 20.663 1.76339 21.2989 2.23223 21.7678C2.70107 22.2366 3.33696 22.5 4 22.5H20C20.663 22.5 21.2989 22.2366 21.7678 21.7678C22.2366 21.2989 22.5 20.663 22.5 20V4C22.5 3.33696 22.2366 2.70107 21.7678 2.23223C21.2989 1.76339 20.663 1.5 20 1.5ZM21 20C21 20.2652 20.8946 20.5196 20.7071 20.7071C20.5196 20.8946 20.2652 21 20 21H4C3.73478 21 3.48043 20.8946 3.29289 20.7071C3.10536 20.5196 3 20.2652 3 20V4C3 3.73478 3.10536 3.48043 3.29289 3.29289C3.48043 3.10536 3.73478 3 4 3H20C20.2652 3 20.5196 3.10536 20.7071 3.29289C20.8946 3.48043 21 3.73478 21 4V20Z" fill="#777777"/>
</svg>
