<svg viewBox="0 0 24 24" fill="none" xmlns="http://www.w3.org/2000/svg">
<path d="M20 1H4C3.20435 1 2.44129 1.31607 1.87868 1.87868C1.31607 2.44129 1 3.20435 1 4V20C1 20.7956 1.31607 21.5587 1.87868 22.1213C2.44129 22.6839 3.20435 23 4 23H20C20.7956 23 21.5587 22.6839 22.1213 22.1213C22.6839 21.5587 23 20.7956 23 20V4C23 3.20435 22.6839 2.44129 22.1213 1.87868C21.5587 1.31607 20.7956 1 20 1ZM18.707 7.707L9.707 16.707C9.51947 16.8945 9.26516 16.9998 9 16.9998C8.73484 16.9998 8.48053 16.8945 8.293 16.707L5.293 13.707C5.11084 13.5184 5.01005 13.2658 5.01233 13.0036C5.0146 12.7414 5.11977 12.4906 5.30518 12.3052C5.49059 12.1198 5.7414 12.0146 6.0036 12.0123C6.2658 12.01 6.5184 12.1108 6.707 12.293L9 14.586L17.293 6.293C17.3852 6.19749 17.4956 6.12131 17.6176 6.0689C17.7396 6.01649 17.8708 5.9889 18.0036 5.98775C18.1364 5.9866 18.2681 6.0119 18.391 6.06218C18.5138 6.11246 18.6255 6.18671 18.7194 6.2806C18.8133 6.3745 18.8875 6.48615 18.9378 6.60905C18.9881 6.73194 19.0134 6.86362 19.0123 6.9964C19.0111 7.12918 18.9835 7.2604 18.9311 7.3824C18.8787 7.50441 18.8025 7.61475 18.707 7.707Z" fill="#DEC194"/>
</svg>
