<svg width="22" height="22" viewBox="0 0 22 22" fill="none" xmlns="http://www.w3.org/2000/svg">
<path fill-rule="evenodd" clip-rule="evenodd" d="M11 0C17.0751 0 22 4.92487 22 11C22 17.0751 17.0751 22 11 22C4.92487 22 0 17.0751 0 11C0 4.92487 4.92487 0 11 0Z" fill="#318619"/>
<path fill-rule="evenodd" clip-rule="evenodd" d="M9.99996 15.4999C9.7356 15.5015 9.45979 15.3281 9.27209 15.1424L6.28837 12.1657C6.03609 11.914 5.93756 11.5472 6.0299 11.2033C6.12224 10.8595 6.39142 10.591 6.73605 10.4989C7.08067 10.4067 7.44838 10.505 7.70066 10.7567L9.84895 12.9496L14.1455 6.99614C14.3371 6.67342 14.6947 6.48606 15.0697 6.51189C15.4448 6.53771 15.7732 6.77231 15.9185 7.11823C16.0638 7.46414 16.0012 7.86224 15.7567 8.14713L10.7838 15.0928C10.6151 15.3316 10.3495 15.484 10.0578 15.5095L9.99996 15.4999Z" fill="white"/>
</svg>
