<svg width="23" height="22" viewBox="0 0 23 22" fill="none" xmlns="http://www.w3.org/2000/svg">
<path fill-rule="evenodd" clip-rule="evenodd" d="M20.297 11C20.297 11.5523 19.8493 12 19.297 12H12.297V19C12.297 19.5523 11.8493 20 11.297 20C10.7447 20 10.297 19.5523 10.297 19V12H3.297C2.74471 12 2.297 11.5523 2.297 11C2.297 10.4477 2.74471 10 3.297 10H10.297V3C10.297 2.44772 10.7447 2 11.297 2C11.8493 2 12.297 2.44772 12.297 3V10H19.297C19.8493 10 20.297 10.4477 20.297 11Z" fill="#777777"/>
</svg>
