<svg width="16" height="16" viewBox="0 0 16 16" fill="none" xmlns="http://www.w3.org/2000/svg">
<path fill-rule="evenodd" clip-rule="evenodd" d="M14.5455 2.18184C14.5455 2.5835 14.2203 2.90911 13.8192 2.90911H13.093L12.3667 15.3091C12.3473 15.6965 12.0278 16.0005 11.6404 16H4.3778C3.99046 16.0005 3.67091 15.6965 3.65154 15.3091L2.92527 2.94547H2.19901C1.78788 2.94547 1.45459 2.61172 1.45459 2.20002C1.45459 1.78831 1.78788 1.45456 2.19901 1.45456H5.38731L5.91022 0.400018C6.03329 0.155451 6.28311 0.000847747 6.55659 1.77081e-05H9.46165C9.73775 -0.00190641 9.99105 0.153106 10.1153 0.400018L10.6455 1.45456H13.8192C14.2203 1.45456 14.5455 1.78017 14.5455 2.18184Z" fill="#585B58"/>
</svg>
