<svg width="16" height="16" viewBox="0 0 16 16" fill="none" xmlns="http://www.w3.org/2000/svg">
<path fill-rule="evenodd" clip-rule="evenodd" d="M13.8182 1.45455H10.6328L10.1019 0.4C9.97863 0.155433 9.72845 0.000830039 9.45459 0H6.5455C6.27164 0.000830039 6.02146 0.155433 5.89823 0.4L5.37459 1.45455H2.18186C1.7802 1.45455 1.45459 1.78016 1.45459 2.18182C1.45459 2.58348 1.7802 2.90909 2.18186 2.90909H2.90914L3.63641 15.3164C3.65952 15.7009 3.97846 16.0007 4.36368 16H11.6364C12.0216 16.0007 12.3406 15.7009 12.3637 15.3164L13.091 2.90909H13.8182C14.2199 2.90909 14.5455 2.58348 14.5455 2.18182C14.5455 1.78016 14.2199 1.45455 13.8182 1.45455ZM10.9455 14.5455H5.09095L4.40732 2.90909H11.5928L10.9455 14.5455Z" fill="#585B58"/>
</svg>
