<svg width="16" height="16" viewBox="0 0 16 16" fill="none" xmlns="http://www.w3.org/2000/svg">
<path fill-rule="evenodd" clip-rule="evenodd" d="M14.5485 5.82156C14.5496 6.01465 14.4737 6.20024 14.3376 6.33733L8.5194 12.1488C8.38284 12.2863 8.19695 12.3636 8.00304 12.3636C7.80912 12.3636 7.62323 12.2863 7.48667 12.1488L1.66849 6.33733C1.48401 6.15306 1.41197 5.88449 1.47949 5.63278C1.54701 5.38107 1.74385 5.18446 1.99585 5.11701C2.24786 5.04957 2.51674 5.12153 2.70122 5.3058L8.00304 10.6087L13.3049 5.3058C13.4414 5.16828 13.6273 5.09092 13.8212 5.09092C14.0151 5.09092 14.201 5.16828 14.3376 5.3058C14.4737 5.44289 14.5496 5.62848 14.5485 5.82156Z" fill="#585B58"/>
</svg>
