<svg xmlns="http://www.w3.org/2000/svg" width="16" height="16" fill="none"><path fill="url(#a)" d="m13.87 7.914-2.842-1.64v1.824c0 .96-.488 1.85-1.288 2.37l.002.004-.126.074-1.578.912-2.842 1.64A2.996 2.996 0 0 1 1.108 12c.302.522.738.966 1.278 1.278l3.906 2.254c1.08.624 2.41.624 3.49 0l3.906-2.254c.54-.312.976-.756 1.278-1.278a2.993 2.993 0 0 0-1.096-4.086Z"/><path fill="url(#b)" d="M15.432 10.254Z"/><path fill="url(#c)" d="m15.222 11.442.042-.124c-.012.04-.026.082-.042.124Z"/><path fill="url(#d)" d="M13.686 2.722 9.78.468A3.483 3.483 0 0 0 8.036 0a2.993 2.993 0 0 0-2.992 2.992v3.282l1.578-.912a2.829 2.829 0 0 1 2.696-.07l.002-.004.126.074 1.578.912 2.842 1.64A2.99 2.99 0 0 1 14.964 12a3.483 3.483 0 0 0 .468-1.746V5.746c0-1.248-.666-2.4-1.746-3.024Z"/><path fill="url(#e)" d="m5.194 13.094 2.842-1.64-1.578-.912a2.825 2.825 0 0 1-1.408-2.3h-.004v-5.25A2.99 2.99 0 0 1 8.036 0 3.49 3.49 0 0 0 6.29.468L2.386 2.722A3.492 3.492 0 0 0 .64 5.746v4.51c0 .624.166 1.224.468 1.746a2.991 2.991 0 0 0 4.086 1.092Z"/><defs><linearGradient id="a" x1="12.289" x2="5.739" y1="7.244" y2="14.65" gradientUnits="userSpaceOnUse"><stop offset="0" stop-color="#4128D3"/><stop offset=".284" stop-color="#4F5AFF"/><stop offset=".999" stop-color="#6A8BFF"/></linearGradient><linearGradient id="b" x1="15.607" x2="9.057" y1="10.178" y2="17.584" gradientUnits="userSpaceOnUse"><stop offset="0" stop-color="#4128D3"/><stop offset=".284" stop-color="#4F5AFF"/><stop offset=".999" stop-color="#6A8BFF"/></linearGradient><linearGradient id="c" x1="15.999" x2="9.449" y1="10.524" y2="17.931" gradientUnits="userSpaceOnUse"><stop offset="0" stop-color="#4128D3"/><stop offset=".284" stop-color="#4F5AFF"/><stop offset=".999" stop-color="#6A8BFF"/></linearGradient><linearGradient id="d" x1="5.044" x2="15.431" y1="6" y2="6" gradientUnits="userSpaceOnUse"><stop offset="0" stop-color="#4128D3"/><stop offset=".284" stop-color="#4F5AFF"/><stop offset=".999" stop-color="#6A8BFF"/></linearGradient><linearGradient id="e" x1="6.262" x2="4.09" y1="12.898" y2="4.372" gradientUnits="userSpaceOnUse"><stop offset="0" stop-color="#4128D3"/><stop offset=".284" stop-color="#4F5AFF"/><stop offset=".999" stop-color="#6A8BFF"/></linearGradient></defs></svg>