<svg viewBox="0 0 16 16" fill="none" xmlns="http://www.w3.org/2000/svg">
<path d="M14.9426 2.78136L13.2186 1.05736C12.6993 0.537358 11.8526 0.537358 11.3333 1.05736L2.19527 10.1954C2.1226 10.2687 2.06727 10.358 2.0346 10.456L0.701265 14.456C0.621265 14.6954 0.683932 14.96 0.861932 15.138C0.988598 15.2654 1.15927 15.3334 1.33327 15.3334C1.40327 15.3334 1.47527 15.322 1.54393 15.2994L5.54393 13.966C5.64193 13.9334 5.73126 13.878 5.8046 13.8047L14.9426 4.66669C15.1946 4.41469 15.3333 4.08003 15.3333 3.72403C15.3333 3.36803 15.1946 3.03269 14.9426 2.78136Z" fill="#777777"/>
</svg>
