<svg viewBox="0 0 24 27" fill="none" xmlns="http://www.w3.org/2000/svg">
<path d="M1.71428 1.14286H3.42857V3.42857C3.42857 3.58012 3.48877 3.72547 3.59594 3.83263C3.7031 3.9398 3.84844 4 4 4C4.15155 4 4.29689 3.9398 4.40406 3.83263C4.51122 3.72547 4.57142 3.58012 4.57142 3.42857V1.14286H6.28571C6.43726 1.14286 6.58261 1.08265 6.68977 0.97549C6.79694 0.868326 6.85714 0.722981 6.85714 0.571429C6.85714 0.419876 6.79694 0.274531 6.68977 0.167368C6.58261 0.0602039 6.43726 0 6.28571 0H1.71428C1.56273 0 1.41738 0.0602039 1.31022 0.167368C1.20306 0.274531 1.14285 0.419876 1.14285 0.571429C1.14285 0.722981 1.20306 0.868326 1.31022 0.97549C1.41738 1.08265 1.56273 1.14286 1.71428 1.14286Z" fill="#A6A6A6"/>
<path d="M17.7143 1.14286H19.4286V3.42857C19.4286 3.58012 19.4888 3.72547 19.5959 3.83263C19.7031 3.9398 19.8484 4 20 4C20.1515 4 20.2969 3.9398 20.404 3.83263C20.5112 3.72547 20.5714 3.58012 20.5714 3.42857V1.14286H22.2857C22.4372 1.14286 22.5826 1.08265 22.6898 0.97549C22.7969 0.868326 22.8571 0.722981 22.8571 0.571429C22.8571 0.419876 22.7969 0.274531 22.6898 0.167368C22.5826 0.0602039 22.4372 0 22.2857 0H17.7143C17.5627 0 17.4174 0.0602039 17.3102 0.167368C17.203 0.274531 17.1428 0.419876 17.1428 0.571429C17.1428 0.722981 17.203 0.868326 17.3102 0.97549C17.4174 1.08265 17.5627 1.14286 17.7143 1.14286Z" fill="#A6A6A6"/>
<path d="M22.8571 6.28564H1.14286C0.839753 6.28564 0.549062 6.40605 0.334735 6.62038C0.120408 6.83471 0 7.1254 0 7.4285V25.1428C0 25.4459 0.120408 25.7366 0.334735 25.9509C0.549062 26.1652 0.839753 26.2856 1.14286 26.2856H22.8571C23.1602 26.2856 23.4509 26.1652 23.6653 25.9509C23.8796 25.7366 24 25.4459 24 25.1428V7.4285C24 7.1254 23.8796 6.83471 23.6653 6.62038C23.4509 6.40605 23.1602 6.28564 22.8571 6.28564ZM6.57143 9.71422C7.08001 9.71422 7.57717 9.86503 8.00004 10.1476C8.42291 10.4301 8.75249 10.8317 8.94712 11.3016C9.14174 11.7715 9.19267 12.2885 9.09345 12.7873C8.99423 13.2861 8.74932 13.7443 8.3897 14.1039C8.03008 14.4635 7.5719 14.7084 7.07309 14.8077C6.57428 14.9069 6.05725 14.856 5.58739 14.6613C5.11752 14.4667 4.71592 14.1371 4.43336 13.7143C4.15081 13.2914 4 12.7942 4 12.2856C4.00076 11.6039 4.27192 10.9503 4.75399 10.4682C5.23606 9.98613 5.88968 9.71497 6.57143 9.71422ZM20 22.2856C20 22.4372 19.9398 22.5825 19.8326 22.6897C19.7255 22.7969 19.5801 22.8571 19.4286 22.8571H4.57143C4.41988 22.8571 4.27453 22.7969 4.16737 22.6897C4.0602 22.5825 4 22.4372 4 22.2856V18.2856C4 18.1341 4.0602 17.9887 4.16737 17.8816C4.27453 17.7744 4.41988 17.7142 4.57143 17.7142H19.4286C19.5801 17.7142 19.7255 17.7744 19.8326 17.8816C19.9398 17.9887 20 18.1341 20 18.2856V22.2856ZM17.4286 14.8571C16.92 14.8571 16.4228 14.7063 16 14.4237C15.5771 14.1412 15.2475 13.7396 15.0529 13.2697C14.8583 12.7998 14.8073 12.2828 14.9066 11.784C15.0058 11.2852 15.2507 10.827 15.6103 10.4674C15.9699 10.1077 16.4281 9.86284 16.9269 9.76363C17.4257 9.66441 17.9427 9.71533 18.4126 9.90995C18.8825 10.1046 19.2841 10.4342 19.5666 10.857C19.8492 11.2799 20 11.7771 20 12.2856C19.9992 12.9674 19.7281 13.621 19.246 14.1031C18.7639 14.5852 18.1103 14.8563 17.4286 14.8571Z" fill="#A6A6A6"/>
</svg>
