<svg width="240" height="48" viewBox="0 0 240 48" fill="none" xmlns="http://www.w3.org/2000/svg">
<path d="M39.3538 23.742L30.9001 18.822V24.294C30.9001 27.174 29.4485 29.844 27.0688 31.404L27.0747 31.416L26.6999 31.638L22.0061 34.374L13.5523 39.294C9.2927 41.766 3.84922 40.29 1.39221 36C2.29054 37.566 3.58745 38.898 5.19373 39.834L16.8124 46.596C20.025 48.468 23.9812 48.468 27.1937 46.596L38.8124 39.834C40.4187 38.898 41.7156 37.566 42.614 36C45.065 31.704 43.6075 26.22 39.3538 23.742Z" fill="url(#paint0_linear_206_75)"/>
<path d="M44.0002 30.762C44.0002 31.02 43.9882 31.272 43.9702 31.53C43.9882 31.278 44.0002 31.02 44.0002 30.762Z" fill="url(#paint1_linear_206_75)"/>
<path d="M43.3752 34.326C43.4169 34.2 43.4585 34.08 43.5002 33.954C43.4645 34.074 43.4228 34.2 43.3752 34.326Z" fill="url(#paint2_linear_206_75)"/>
<path d="M38.8063 8.166L27.1876 1.404C25.5813 0.468 23.7906 0 21.9999 0C17.0859 0 13.1 4.02 13.1 8.976V18.822L17.7939 16.086C20.2687 14.646 23.2849 14.58 25.8133 15.876L25.8193 15.864L26.1941 16.086L30.888 18.822L39.3417 23.742C43.6073 26.22 45.0648 31.71 42.6078 36C43.5061 34.434 43.9999 32.634 43.9999 30.762V17.238C43.9999 13.494 42.0189 10.038 38.8063 8.166Z" fill="url(#paint3_linear_206_75)"/>
<path d="M13.5462 39.282L22 34.362L17.3061 31.626C14.8313 30.186 13.2666 27.582 13.1179 24.726H13.106V24.288V18.816V8.976C13.1001 4.02 17.086 0 22 0C20.2093 0 18.4127 0.468 16.8064 1.404L5.19362 8.166C1.98107 10.038 0 13.494 0 17.238V30.768C0 32.64 0.49378 34.44 1.3921 36.006C3.84911 40.29 9.29259 41.766 13.5462 39.282Z" fill="url(#paint4_linear_206_75)"/>
<path d="M112.786 36.5145C110.887 36.5145 109.085 36.0214 107.419 35.0411C105.77 34.0728 104.441 32.7717 103.46 31.1617C102.474 29.5399 101.972 27.7873 101.972 25.9516C101.972 23.9792 102.468 22.1791 103.448 20.5929C104.422 19.0067 105.777 17.7591 107.474 16.868C109.153 15.9887 111.04 15.5431 113.08 15.5431C116.248 15.5431 118.975 16.767 121.187 19.173L121.897 19.9453L109.177 32.1182C109.631 32.4034 110.072 32.6291 110.501 32.8014C111.211 33.0806 112.032 33.2173 112.952 33.2173C114.183 33.2173 115.335 32.9143 116.456 32.2846C117.584 31.6548 118.533 30.7815 119.281 29.6825L121.346 26.6467V32.7361L121.058 33.045C119.937 34.251 118.687 35.1362 117.333 35.6887C115.991 36.2412 114.465 36.5145 112.786 36.5145ZM113.037 18.8403C111.573 18.8403 110.256 19.1493 109.128 19.7552C107.995 20.3671 107.137 21.181 106.493 22.2385C105.85 23.296 105.538 24.4723 105.538 25.8268C105.538 27.3596 105.942 28.6844 106.763 29.8547L117.008 19.9869C116.542 19.6721 116.089 19.4285 115.654 19.2562C114.943 18.9829 114.061 18.8403 113.037 18.8403Z" fill="#505064"/>
<path d="M137.424 36.4729C135.561 36.4729 133.747 35.9798 132.032 35.0114C131.352 34.6253 130.733 34.1916 130.175 33.7044V36.0392H126.609V4H130.175V18.276C130.696 17.8066 131.278 17.3848 131.921 17.0165C133.655 16.0184 135.506 15.5075 137.424 15.5075C139.397 15.5075 141.241 15.9887 142.901 16.9333C144.556 17.872 145.879 19.1552 146.854 20.7414C147.828 22.3395 148.324 24.104 148.324 25.9932C148.324 27.8824 147.828 29.6528 146.854 31.2449C145.885 32.8311 144.556 34.1144 142.901 35.053C141.241 35.9976 139.397 36.4729 137.424 36.4729ZM137.467 18.7988C136.161 18.7988 134.973 19.1255 133.845 19.7909C132.693 20.4741 131.799 21.3533 131.107 22.4821C130.426 23.593 130.096 24.7515 130.096 26.0229C130.096 27.2942 130.426 28.4468 131.107 29.5399C131.787 30.6389 132.712 31.5301 133.858 32.1895C135.003 32.8489 136.198 33.1698 137.509 33.1698C138.815 33.1698 139.997 32.849 141.112 32.1955C142.246 31.5301 143.116 30.6686 143.778 29.5577C144.433 28.4586 144.758 27.2883 144.758 25.9872C144.758 24.7099 144.433 23.5515 143.759 22.4346C143.091 21.3236 142.185 20.4325 141.069 19.7731C139.948 19.1196 138.772 18.7988 137.467 18.7988Z" fill="#505064"/>
<path d="M153.459 44V15.9412H157.025V18.2225C157.546 17.765 158.134 17.3551 158.777 16.9868C160.505 16.0006 162.356 15.5015 164.273 15.5015C166.246 15.5015 168.091 15.9828 169.751 16.9274C171.399 17.866 172.729 19.1493 173.703 20.7355C174.677 22.3336 175.174 24.104 175.174 25.9872C175.174 27.8764 174.677 29.6409 173.703 31.239C172.735 32.8252 171.406 34.1084 169.751 35.0471C168.091 35.9917 166.246 36.4729 164.273 36.4729C162.411 36.4729 160.597 35.9798 158.881 35.0114C158.201 34.6253 157.583 34.1916 157.025 33.7044V44H153.459ZM164.316 18.7987C163.011 18.7987 161.823 19.1255 160.695 19.7909C159.543 20.4741 158.649 21.3533 157.956 22.4821C157.276 23.593 156.945 24.7515 156.945 26.0229C156.945 27.2942 157.276 28.4467 157.956 29.5399C158.636 30.6389 159.562 31.5301 160.707 32.1895C161.853 32.8489 163.048 33.1698 164.359 33.1698C165.664 33.1698 166.847 32.8489 167.962 32.1954C169.096 31.5301 169.966 30.6686 170.627 29.5577C171.283 28.4586 171.608 27.2883 171.608 25.9872C171.608 24.7159 171.283 23.5515 170.609 22.4346C169.941 21.3236 169.034 20.4325 167.919 19.773C166.804 19.1196 165.621 18.7987 164.316 18.7987Z" fill="#505064"/>
<path d="M181.258 36.0392V15.9412H184.824V36.0392H181.258ZM183.041 14.0223C182.373 14.0223 181.754 13.7787 181.258 13.3212C180.749 12.8519 180.48 12.2341 180.48 11.533C180.48 10.8617 180.749 10.2617 181.258 9.78642C181.754 9.32897 182.373 9.0854 183.041 9.0854C183.709 9.0854 184.328 9.32897 184.824 9.78642C185.333 10.2617 185.608 10.8617 185.608 11.533C185.608 12.2281 185.339 12.846 184.824 13.3212C184.328 13.7787 183.709 14.0223 183.041 14.0223Z" fill="#505064"/>
<path d="M200.118 36.3957C198.647 36.3957 197.275 36.063 196.043 35.4035C194.799 34.7382 193.801 33.7936 193.071 32.5935C192.342 31.3934 191.969 30.0449 191.969 28.5775V4H195.535V28.5775C195.535 29.4508 195.731 30.2112 196.141 30.8944C196.552 31.5835 197.097 32.1123 197.802 32.5044C198.512 32.9024 199.266 33.0925 200.112 33.0925H201.239V36.3897H200.118V36.3957Z" fill="#505064"/>
<path d="M215.191 36.6749C213.126 36.6749 211.233 36.1699 209.554 35.1837C207.887 34.1975 206.564 32.8727 205.626 31.239C204.689 29.6112 204.211 27.817 204.211 25.91C204.211 24.0267 204.695 22.2504 205.651 20.6285C206.607 19.0126 207.93 17.7056 209.584 16.7491C211.245 15.7867 213.12 15.2996 215.148 15.2996C217.152 15.2996 219.008 15.7867 220.675 16.7491C222.329 17.7056 223.646 19.0126 224.59 20.6345C225.534 22.2563 226.005 24.0267 226.005 25.91C226.005 27.8645 225.546 29.6765 224.639 31.3043C223.726 32.944 222.433 34.2629 220.803 35.2194C219.167 36.1877 217.274 36.6749 215.191 36.6749ZM215.148 18.6027C213.788 18.6027 212.581 18.9354 211.453 19.6126C210.32 20.2958 209.419 21.2107 208.763 22.3455C208.102 23.492 207.777 24.698 207.777 26.0288C207.777 27.3655 208.095 28.5596 208.757 29.6884C209.419 30.8231 210.301 31.7024 211.447 32.3796C212.575 33.0509 213.8 33.3717 215.191 33.3717C216.551 33.3717 217.752 33.045 218.867 32.3796C219.995 31.7024 220.852 30.829 221.49 29.7003C222.121 28.5834 222.439 27.3299 222.439 25.9813C222.439 24.6624 222.115 23.4208 221.471 22.286C220.822 21.1454 219.958 20.2602 218.824 19.5829C217.709 18.9235 216.508 18.6027 215.148 18.6027Z" fill="#505064"/>
<path d="M238.879 36.2768C236.569 36.2768 234.62 35.5758 233.082 34.1916C231.52 32.7895 230.729 30.8588 230.729 28.4527V8.72894H234.296V15.9352H239.963V19.2324H234.296V28.4527C234.296 29.9082 234.712 30.9954 235.564 31.7796C236.434 32.5816 237.518 32.9737 238.873 32.9737H240V36.2768H238.879Z" fill="#505064"/>
<path d="M85.7222 15.1035L90.6914 4H86.966L83.8534 10.9093L85.7222 15.1035Z" fill="#505064"/>
<path d="M99.7719 4L88.3569 29.6112L84.1291 20.1592H84.1229L81.9171 15.2105L76.9051 4H73.0572L79.8645 19.2621L75.263 29.4983L63.8908 4H60L75.2139 38.2076L81.7823 23.599L88.2711 38.2076L103.669 4H99.7719Z" fill="#505064"/>
<defs>
<linearGradient id="paint0_linear_206_75" x1="34.6522" y1="21.7304" x2="14.981" y2="43.7833" gradientUnits="userSpaceOnUse">
<stop offset="8.07343e-08" stop-color="#4128D3"/>
<stop offset="0.284" stop-color="#4F5AFF"/>
<stop offset="0.9991" stop-color="#6A8BFF"/>
</linearGradient>
<linearGradient id="paint1_linear_206_75" x1="44.5266" y1="30.5344" x2="24.875" y2="52.7516" gradientUnits="userSpaceOnUse">
<stop offset="8.07343e-08" stop-color="#4128D3"/>
<stop offset="0.284" stop-color="#4F5AFF"/>
<stop offset="0.9991" stop-color="#6A8BFF"/>
</linearGradient>
<linearGradient id="paint2_linear_206_75" x1="45.6867" y1="31.5735" x2="26.0156" y2="53.6262" gradientUnits="userSpaceOnUse">
<stop offset="8.07343e-08" stop-color="#4128D3"/>
<stop offset="0.284" stop-color="#4F5AFF"/>
<stop offset="0.9991" stop-color="#6A8BFF"/>
</linearGradient>
<linearGradient id="paint3_linear_206_75" x1="13.1007" y1="18" x2="43.9987" y2="18" gradientUnits="userSpaceOnUse">
<stop offset="8.07343e-08" stop-color="#4128D3"/>
<stop offset="0.284" stop-color="#4F5AFF"/>
<stop offset="0.9991" stop-color="#6A8BFF"/>
</linearGradient>
<linearGradient id="paint4_linear_206_75" x1="16.7237" y1="38.6938" x2="10.1573" y2="13.1441" gradientUnits="userSpaceOnUse">
<stop offset="8.07343e-08" stop-color="#4128D3"/>
<stop offset="0.284" stop-color="#4F5AFF"/>
<stop offset="0.9991" stop-color="#6A8BFF"/>
</linearGradient>
</defs>
</svg>
