<svg width="241" height="48" viewBox="0 0 241 48" fill="none" xmlns="http://www.w3.org/2000/svg">
<path d="M39.6901 23.742L31.1641 18.822V24.294C31.1641 27.174 29.7001 29.844 27.3001 31.404L27.3061 31.416L26.9281 31.638L22.1941 34.374L13.6681 39.294C9.37205 41.766 3.88205 40.29 1.40405 36C2.31005 37.566 3.61805 38.898 5.23805 39.834L16.9561 46.596C20.1961 48.468 24.1861 48.468 27.4261 46.596L39.1441 39.834C40.7641 38.898 42.0721 37.566 42.9781 36C45.4501 31.704 43.9801 26.22 39.6901 23.742Z" fill="url(#paint0_linear_212_1027)"/>
<path d="M44.3759 30.762C44.3759 31.02 44.3639 31.272 44.3459 31.53C44.3639 31.278 44.3759 31.02 44.3759 30.762Z" fill="url(#paint1_linear_212_1027)"/>
<path d="M43.746 34.3261C43.788 34.2001 43.83 34.0801 43.872 33.9541C43.836 34.0741 43.794 34.2001 43.746 34.3261Z" fill="url(#paint2_linear_212_1027)"/>
<path d="M39.1379 8.166L27.4199 1.404C25.7999 0.468 23.9939 0 22.1879 0C17.2319 0 13.2119 4.02 13.2119 8.976V18.822L17.9459 16.086C20.4419 14.646 23.4839 14.58 26.0339 15.876L26.0399 15.864L26.4179 16.086L31.1519 18.822L39.6779 23.742C43.9799 26.22 45.4499 31.71 42.9719 36C43.8779 34.434 44.3759 32.634 44.3759 30.762V17.238C44.3759 13.494 42.3779 10.038 39.1379 8.166Z" fill="url(#paint3_linear_212_1027)"/>
<path d="M13.662 39.282L22.188 34.362L17.454 31.626C14.958 30.186 13.38 27.582 13.23 24.726H13.218V24.288V18.816V8.976C13.212 4.02 17.232 0 22.188 0C20.382 0 18.57 0.468 16.95 1.404L5.238 8.166C1.998 10.038 0 13.494 0 17.238V30.768C0 32.64 0.498 34.44 1.404 36.006C3.882 40.29 9.372 41.766 13.662 39.282Z" fill="url(#paint4_linear_212_1027)"/>
<path d="M116.256 40.44C114.396 40.44 112.632 39.942 111 38.952C109.386 37.974 108.084 36.66 107.124 35.034C106.158 33.396 105.666 31.626 105.666 29.772C105.666 27.78 106.152 25.962 107.112 24.36C108.066 22.758 109.392 21.498 111.054 20.598C112.698 19.71 114.546 19.26 116.544 19.26C119.646 19.26 122.316 20.496 124.482 22.926L125.178 23.706L112.722 36C113.166 36.288 113.598 36.516 114.018 36.69C114.714 36.972 115.518 37.11 116.418 37.11C117.624 37.11 118.752 36.804 119.85 36.168C120.954 35.532 121.884 34.65 122.616 33.54L124.638 30.474V36.624L124.356 36.936C123.258 38.154 122.034 39.048 120.708 39.606C119.394 40.164 117.9 40.44 116.256 40.44ZM116.502 22.59C115.068 22.59 113.778 22.902 112.674 23.514C111.564 24.132 110.724 24.954 110.094 26.022C109.464 27.09 109.158 28.278 109.158 29.646C109.158 31.194 109.554 32.532 110.358 33.714L120.39 23.748C119.934 23.43 119.49 23.184 119.064 23.01C118.368 22.734 117.504 22.59 116.502 22.59Z" fill="#505064"/>
<path d="M140.382 40.3981C138.558 40.3981 136.782 39.9001 135.102 38.9221C134.436 38.5321 133.83 38.0941 133.284 37.6021V39.9601H129.792V7.60205H133.284V22.0201C133.794 21.5461 134.364 21.1201 134.994 20.7481C136.692 19.7401 138.504 19.2241 140.382 19.2241C142.314 19.2241 144.12 19.7101 145.746 20.6641C147.366 21.6121 148.662 22.9081 149.616 24.5101C150.57 26.1241 151.056 27.9061 151.056 29.8141C151.056 31.7221 150.57 33.5101 149.616 35.1181C148.668 36.7201 147.366 38.0161 145.746 38.9641C144.12 39.9181 142.314 40.3981 140.382 40.3981ZM140.424 22.5481C139.146 22.5481 137.982 22.8781 136.878 23.5501C135.75 24.2401 134.874 25.1281 134.196 26.2681C133.53 27.3901 133.206 28.5601 133.206 29.8441C133.206 31.1281 133.53 32.2921 134.196 33.3961C134.862 34.5061 135.768 35.4061 136.89 36.0721C138.012 36.7381 139.182 37.0621 140.466 37.0621C141.744 37.0621 142.902 36.7381 143.994 36.0781C145.104 35.4061 145.956 34.5361 146.604 33.4141C147.246 32.3041 147.564 31.1221 147.564 29.8081C147.564 28.5181 147.246 27.3481 146.586 26.2201C145.932 25.0981 145.044 24.1981 143.952 23.5321C142.854 22.8721 141.702 22.5481 140.424 22.5481Z" fill="#505064"/>
<path d="M156.084 48V19.662H159.576V21.966C160.086 21.504 160.662 21.09 161.292 20.718C162.984 19.722 164.796 19.218 166.674 19.218C168.606 19.218 170.412 19.704 172.038 20.658C173.652 21.606 174.954 22.902 175.908 24.504C176.862 26.118 177.348 27.906 177.348 29.808C177.348 31.716 176.862 33.498 175.908 35.112C174.96 36.714 173.658 38.01 172.038 38.958C170.412 39.912 168.606 40.398 166.674 40.398C164.85 40.398 163.074 39.9 161.394 38.922C160.728 38.532 160.122 38.094 159.576 37.602V48H156.084ZM166.716 22.548C165.438 22.548 164.274 22.878 163.17 23.55C162.042 24.24 161.166 25.128 160.488 26.268C159.822 27.39 159.498 28.56 159.498 29.844C159.498 31.128 159.822 32.292 160.488 33.396C161.154 34.506 162.06 35.406 163.182 36.072C164.304 36.738 165.474 37.062 166.758 37.062C168.036 37.062 169.194 36.738 170.286 36.078C171.396 35.406 172.248 34.536 172.896 33.414C173.538 32.304 173.856 31.122 173.856 29.808C173.856 28.524 173.538 27.348 172.878 26.22C172.224 25.098 171.336 24.198 170.244 23.532C169.152 22.872 167.994 22.548 166.716 22.548Z" fill="#505064"/>
<path d="M183.306 39.96V19.662H186.798V39.96H183.306ZM185.052 17.724C184.398 17.724 183.792 17.478 183.306 17.016C182.808 16.542 182.544 15.918 182.544 15.21C182.544 14.532 182.808 13.926 183.306 13.446C183.792 12.984 184.398 12.738 185.052 12.738C185.706 12.738 186.312 12.984 186.798 13.446C187.296 13.926 187.566 14.532 187.566 15.21C187.566 15.912 187.302 16.536 186.798 17.016C186.312 17.478 185.706 17.724 185.052 17.724Z" fill="#505064"/>
<path d="M201.774 40.3201C200.334 40.3201 198.99 39.9841 197.784 39.3181C196.566 38.6461 195.588 37.6921 194.874 36.4801C194.16 35.2681 193.794 33.9061 193.794 32.4241V7.60205H197.286V32.4241C197.286 33.3061 197.478 34.0741 197.88 34.7641C198.282 35.4601 198.816 35.9941 199.506 36.3901C200.202 36.7921 200.94 36.9841 201.768 36.9841H202.872V40.3141H201.774V40.3201Z" fill="#505064"/>
<path d="M216.534 40.6022C214.512 40.6022 212.658 40.0922 211.014 39.0962C209.382 38.1002 208.086 36.7622 207.168 35.1122C206.25 33.4682 205.782 31.6562 205.782 29.7302C205.782 27.8282 206.256 26.0342 207.192 24.3962C208.128 22.7642 209.424 21.4442 211.044 20.4782C212.67 19.5062 214.506 19.0142 216.492 19.0142C218.454 19.0142 220.272 19.5062 221.904 20.4782C223.524 21.4442 224.814 22.7642 225.738 24.4022C226.662 26.0402 227.124 27.8282 227.124 29.7302C227.124 31.7042 226.674 33.5342 225.786 35.1782C224.892 36.8342 223.626 38.1662 222.03 39.1322C220.428 40.1102 218.574 40.6022 216.534 40.6022ZM216.492 22.3502C215.16 22.3502 213.978 22.6862 212.874 23.3702C211.764 24.0602 210.882 24.9842 210.24 26.1302C209.592 27.2882 209.274 28.5062 209.274 29.8502C209.274 31.2002 209.586 32.4062 210.234 33.5462C210.882 34.6922 211.746 35.5802 212.868 36.2642C213.972 36.9422 215.172 37.2662 216.534 37.2662C217.866 37.2662 219.042 36.9362 220.134 36.2642C221.238 35.5802 222.078 34.6982 222.702 33.5582C223.32 32.4302 223.632 31.1642 223.632 29.8022C223.632 28.4702 223.314 27.2162 222.684 26.0702C222.048 24.9182 221.202 24.0242 220.092 23.3402C219 22.6742 217.824 22.3502 216.492 22.3502Z" fill="#505064"/>
<path d="M239.73 40.1999C237.468 40.1999 235.56 39.4919 234.054 38.0939C232.524 36.6779 231.75 34.7279 231.75 32.2979V12.3779H235.242V19.6559H240.792V22.9859H235.242V32.2979C235.242 33.7679 235.65 34.8659 236.484 35.6579C237.336 36.4679 238.398 36.8639 239.724 36.8639H240.828V40.1999H239.73Z" fill="#505064"/>
<path d="M89.7541 18.8161L94.6201 7.60205H90.9721L87.9241 14.5801L89.7541 18.8161Z" fill="#505064"/>
<path d="M103.512 7.60205L92.334 33.4681L88.194 23.922H88.188L86.028 18.9241L81.12 7.60205H77.352L84.018 23.0161L79.512 33.354L68.376 7.60205H64.566L79.464 42.1501L85.896 27.396L92.25 42.1501L107.328 7.60205H103.512Z" fill="#505064"/>
<defs>
<linearGradient id="paint0_linear_212_1027" x1="34.9483" y1="21.7305" x2="15.2968" y2="43.9494" gradientUnits="userSpaceOnUse">
<stop offset="8.07343e-08" stop-color="#4128D3"/>
<stop offset="0.284" stop-color="#4F5AFF"/>
<stop offset="0.9991" stop-color="#6A8BFF"/>
</linearGradient>
<linearGradient id="paint1_linear_212_1027" x1="44.9023" y1="30.5344" x2="25.2508" y2="52.7516" gradientUnits="userSpaceOnUse">
<stop offset="8.07343e-08" stop-color="#4128D3"/>
<stop offset="0.284" stop-color="#4F5AFF"/>
<stop offset="0.9991" stop-color="#6A8BFF"/>
</linearGradient>
<linearGradient id="paint2_linear_212_1027" x1="46.0772" y1="31.5735" x2="26.4258" y2="53.7924" gradientUnits="userSpaceOnUse">
<stop offset="8.07343e-08" stop-color="#4128D3"/>
<stop offset="0.284" stop-color="#4F5AFF"/>
<stop offset="0.9991" stop-color="#6A8BFF"/>
</linearGradient>
<linearGradient id="paint3_linear_212_1027" x1="13.2126" y1="18" x2="44.3747" y2="18" gradientUnits="userSpaceOnUse">
<stop offset="8.07343e-08" stop-color="#4128D3"/>
<stop offset="0.284" stop-color="#4F5AFF"/>
<stop offset="0.9991" stop-color="#6A8BFF"/>
</linearGradient>
<linearGradient id="paint4_linear_212_1027" x1="16.8666" y1="38.6938" x2="10.349" y2="13.1173" gradientUnits="userSpaceOnUse">
<stop offset="8.07343e-08" stop-color="#4128D3"/>
<stop offset="0.284" stop-color="#4F5AFF"/>
<stop offset="0.9991" stop-color="#6A8BFF"/>
</linearGradient>
</defs>
</svg>
