<svg viewBox="0 0 24 24" fill="none" xmlns="http://www.w3.org/2000/svg">
<path d="M18.941 7.764C18.8983 7.6842 18.8347 7.61749 18.757 7.571C18.6794 7.5245 18.5905 7.49996 18.5 7.5H13.163L14.981 1.1375C15.0023 1.06306 15.006 0.98469 14.9919 0.90857C14.9777 0.832449 14.9461 0.760656 14.8994 0.698849C14.8528 0.637042 14.7924 0.58691 14.7231 0.552403C14.6538 0.517896 14.5774 0.499957 14.5 0.5H7.50001C7.3903 0.499978 7.28362 0.536042 7.19643 0.602634C7.10924 0.669226 7.04637 0.762649 7.01751 0.8685L4.01751 11.8685C3.99729 11.9427 3.99445 12.0205 4.00921 12.096C4.02396 12.1714 4.05593 12.2425 4.1026 12.3036C4.14928 12.3647 4.20942 12.4142 4.27835 12.4482C4.34727 12.4823 4.42313 12.5 4.50001 12.5H9.90001L8.00801 22.9105C7.98707 23.0238 8.00593 23.1409 8.0614 23.242C8.11687 23.343 8.20554 23.4218 8.31241 23.465C8.41928 23.5081 8.53778 23.513 8.64787 23.4789C8.75795 23.4447 8.85285 23.3736 8.91651 23.2775L18.9165 8.2775C18.9667 8.20215 18.9955 8.11458 18.9998 8.02414C19.0041 7.9337 18.9838 7.84379 18.941 7.764Z" fill="#DEC194"/>
<path d="M20.3 23.0001L19.6 21.0001H16.85L16.15 23.0001H14.95L17.6 15.8501H18.85L21.5 23.0001H20.3ZM19.3 20.0001L18.65 18.0501C18.6 17.9001 18.55 17.7001 18.45 17.4501C18.35 17.2001 18.3 16.9501 18.25 16.8501C18.1467 17.2921 18.0131 17.7265 17.85 18.1501L17.2 20.0001H19.3Z" fill="#DEC194"/>
</svg>
