<svg width="16" height="16" viewBox="0 0 16 16" fill="none" xmlns="http://www.w3.org/2000/svg">
<path fill-rule="evenodd" clip-rule="evenodd" d="M1.45151 10.1784C1.45039 9.98535 1.52628 9.79976 1.66242 9.66267L7.4806 3.85123C7.61716 3.71371 7.80305 3.63635 7.99696 3.63635C8.19088 3.63635 8.37677 3.71371 8.51333 3.85123L14.3315 9.66267C14.516 9.84694 14.588 10.1155 14.5205 10.3672C14.453 10.6189 14.2562 10.8155 14.0041 10.883C13.7521 10.9504 13.4833 10.8785 13.2988 10.6942L7.99696 5.39126L2.69514 10.6942C2.55859 10.8317 2.3727 10.9091 2.17878 10.9091C1.98486 10.9091 1.79897 10.8317 1.66242 10.6942C1.52628 10.5571 1.45039 10.3715 1.45151 10.1784Z" fill="#585B58"/>
</svg>
