<svg width="16" height="16" viewBox="0 0 16 16" fill="none" xmlns="http://www.w3.org/2000/svg">
<g clip-path="url(#clip0_2177_21898)">
<rect width="16" height="16" rx="4" fill="#4F5AFF"/>
<path fill-rule="evenodd" clip-rule="evenodd" d="M14.3721 2.12886C13.4482 1.39904 12.3059 1.00148 11.129 1.00011C10.8936 0.996414 10.6667 1.0879 10.4996 1.25386L2.63742 9.12886C2.51345 9.25004 2.42826 9.40536 2.39266 9.57511L1.51851 13.9501C1.45831 14.2384 1.54701 14.5376 1.75453 14.7464C1.92376 14.9145 2.15428 15.0062 2.39266 15.0001H2.56749L6.93822 14.1251C7.10678 14.0919 7.26185 14.0097 7.38403 13.8889L15.2462 6.01386C15.4142 5.84446 15.5058 5.61372 15.4997 5.37511C15.4983 4.19703 15.1012 3.05365 14.3721 2.12886ZM6.33505 12.4451L3.50282 13.0139L4.07102 10.1789L9.3807 4.86762L11.6447 7.12512L6.33505 12.4451ZM12.8773 5.88262L10.6132 3.62512L11.4874 2.75012C12.0875 2.78041 12.6653 2.9874 13.1483 3.34512C13.5118 3.83594 13.7217 4.42363 13.7514 5.03387L12.8773 5.88262Z" fill="white"/>
</g>
<defs>
<clipPath id="clip0_2177_21898">
<rect width="16" height="16" fill="white"/>
</clipPath>
</defs>
</svg>
