<svg width="16" height="16" viewBox="0 0 16 16" fill="none" xmlns="http://www.w3.org/2000/svg">
<path fill-rule="evenodd" clip-rule="evenodd" d="M13.8721 2.12886C12.9482 1.39904 11.8059 1.00148 10.629 1.00011C10.3936 0.996414 10.1667 1.0879 9.9996 1.25386L2.13742 9.12886C2.01345 9.25004 1.92826 9.40536 1.89266 9.57511L1.01851 13.9501C0.958309 14.2384 1.04701 14.5376 1.25453 14.7464C1.42376 14.9145 1.65428 15.0062 1.89266 15.0001H2.06749L6.43822 14.1251C6.60678 14.0919 6.76185 14.0097 6.88403 13.8889L14.7462 6.01386C14.9142 5.84446 15.0058 5.61372 14.9997 5.37511C14.9983 4.19703 14.6012 3.05365 13.8721 2.12886ZM5.83505 12.4451L3.00282 13.0139L3.57102 10.1789L8.8807 4.86762L11.1447 7.12512L5.83505 12.4451ZM12.3773 5.88262L10.1132 3.62512L10.9874 2.75012C11.5875 2.78041 12.1653 2.9874 12.6483 3.34512C13.0118 3.83594 13.2217 4.42363 13.2514 5.03387L12.3773 5.88262Z" fill="url(#paint0_radial_2177_21871)"/>
<defs>
<radialGradient id="paint0_radial_2177_21871" cx="0" cy="0" r="1" gradientUnits="userSpaceOnUse" gradientTransform="translate(0.889841 -1.45934) rotate(60.1191) scale(28.3223 193.396)">
<stop stop-color="#4944EC"/>
<stop offset="0.76056" stop-color="#6B8CFF"/>
</radialGradient>
</defs>
</svg>
