<svg width="16" height="16" viewBox="0 0 16 16" fill="none" xmlns="http://www.w3.org/2000/svg">
<mask id="path-1-inside-1_3409_43434" fill="white">
<path fill-rule="evenodd" clip-rule="evenodd" d="M4.27886 8.70733L4.27858 8.70704L4.2766 8.70505L4.27388 8.70232L4.98289 7.99713L4.27899 7.29323L5.89091 5.68132C7.05564 4.51658 8.94434 4.51658 10.1091 5.68132L11.6794 7.25159C11.696 7.26823 11.7125 7.28495 11.729 7.30177L12.4197 8.00878L11.7208 8.7077L10.1091 10.3194C8.94435 11.4841 7.05565 11.4841 5.89091 10.3194L4.98609 9.41456L4.98568 9.41497L4.28535 8.71381L4.279 8.70746L4.27886 8.70733ZM5.6932 8.70745L6.59802 9.61227C7.37223 10.3865 8.62777 10.3865 9.40198 9.61227L11.0137 8.00059C10.9999 7.98656 10.9861 7.97259 10.9722 7.95869L9.40197 6.38842C8.62776 5.61421 7.37223 5.61421 6.59801 6.38842L5.6932 7.29323L5.38567 7.60077L4.9861 8.00034L5.6932 8.70745ZM11.6825 11.6825L11.6825 11.6825L13.0343 10.3307C14.322 9.04299 14.3218 6.95628 13.0344 5.66946L13.0343 5.66931L10.3307 2.96571C9.04298 1.67802 6.95627 1.67822 5.66945 2.96557L5.66931 2.96571L4.42537 4.20965L4.34208 4.34931L4.2169 4.41814L2.96571 5.66933C1.67802 6.95702 1.67822 9.04373 2.96557 10.3306L2.96571 10.3307L5.66931 13.0343C6.95701 14.322 9.04372 14.3218 10.3305 13.0344L10.3307 13.0343L11.4249 11.9401L11.4249 11.9401L11.6825 11.6825ZM12.3896 12.3896L11.0378 13.7414C9.36033 15.4195 6.64035 15.4195 4.96221 13.7414L2.25861 11.0378C0.580464 9.36035 0.580464 6.64036 2.25861 4.96222L3.61041 3.61042L3.62231 3.60388C3.62756 3.59508 3.63388 3.58692 3.64112 3.57968L4.9622 2.25861C6.63966 0.580464 9.35964 0.580464 11.0378 2.25861L13.7414 4.96221C15.4195 6.63967 15.4195 9.35965 13.7414 11.0378L12.3896 12.3896L12.3896 12.3896Z"/>
</mask>
<path fill-rule="evenodd" clip-rule="evenodd" d="M4.27886 8.70733L4.27858 8.70704L4.2766 8.70505L4.27388 8.70232L4.98289 7.99713L4.27899 7.29323L5.89091 5.68132C7.05564 4.51658 8.94434 4.51658 10.1091 5.68132L11.6794 7.25159C11.696 7.26823 11.7125 7.28495 11.729 7.30177L12.4197 8.00878L11.7208 8.7077L10.1091 10.3194C8.94435 11.4841 7.05565 11.4841 5.89091 10.3194L4.98609 9.41456L4.98568 9.41497L4.28535 8.71381L4.279 8.70746L4.27886 8.70733ZM5.6932 8.70745L6.59802 9.61227C7.37223 10.3865 8.62777 10.3865 9.40198 9.61227L11.0137 8.00059C10.9999 7.98656 10.9861 7.97259 10.9722 7.95869L9.40197 6.38842C8.62776 5.61421 7.37223 5.61421 6.59801 6.38842L5.6932 7.29323L5.38567 7.60077L4.9861 8.00034L5.6932 8.70745ZM11.6825 11.6825L11.6825 11.6825L13.0343 10.3307C14.322 9.04299 14.3218 6.95628 13.0344 5.66946L13.0343 5.66931L10.3307 2.96571C9.04298 1.67802 6.95627 1.67822 5.66945 2.96557L5.66931 2.96571L4.42537 4.20965L4.34208 4.34931L4.2169 4.41814L2.96571 5.66933C1.67802 6.95702 1.67822 9.04373 2.96557 10.3306L2.96571 10.3307L5.66931 13.0343C6.95701 14.322 9.04372 14.3218 10.3305 13.0344L10.3307 13.0343L11.4249 11.9401L11.4249 11.9401L11.6825 11.6825ZM12.3896 12.3896L11.0378 13.7414C9.36033 15.4195 6.64035 15.4195 4.96221 13.7414L2.25861 11.0378C0.580464 9.36035 0.580464 6.64036 2.25861 4.96222L3.61041 3.61042L3.62231 3.60388C3.62756 3.59508 3.63388 3.58692 3.64112 3.57968L4.9622 2.25861C6.63966 0.580464 9.35964 0.580464 11.0378 2.25861L13.7414 4.96221C15.4195 6.63967 15.4195 9.35965 13.7414 11.0378L12.3896 12.3896L12.3896 12.3896Z" fill="white"/>
<path d="M4.27858 8.70704L4.99544 8.0097L4.98619 8.00044L4.27858 8.70704ZM4.27886 8.70733L3.56199 9.40467L3.57175 9.41443L4.27886 8.70733ZM4.2766 8.70505L3.5676 9.41027L3.56898 9.41165L4.2766 8.70505ZM4.27388 8.70232L3.56869 7.99331L2.85965 8.69853L3.56489 9.40754L4.27388 8.70232ZM4.98289 7.99713L5.68808 8.70615L6.39901 7.99904L5.68999 7.29003L4.98289 7.99713ZM4.27899 7.29323L3.57188 6.58613L2.86477 7.29323L3.57188 8.00034L4.27899 7.29323ZM5.89091 5.68132L6.59801 6.38842H6.59801L5.89091 5.68132ZM10.1091 5.68132L10.8162 4.97421V4.97421L10.1091 5.68132ZM11.6794 7.25159L10.9722 7.95869L11.6794 7.25159ZM11.729 7.30177L11.0137 8.00059L11.0137 8.00059L11.729 7.30177ZM12.4197 8.00878L13.1268 8.71589L13.8257 8.01697L13.135 7.30996L12.4197 8.00878ZM11.7208 8.7077L11.0137 8.00059V8.00059L11.7208 8.7077ZM10.1091 10.3194L9.40198 9.61227H9.40198L10.1091 10.3194ZM5.89091 10.3194L6.59802 9.61227H6.59802L5.89091 10.3194ZM4.98609 9.41456L5.6932 8.70745L4.98609 8.00035L4.27898 8.70745L4.98609 9.41456ZM4.98568 9.41497L4.27817 10.1217L4.98527 10.8296L5.69279 10.1221L4.98568 9.41497ZM4.28535 8.71381L4.99286 8.00712L4.99245 8.00671L4.28535 8.71381ZM5.6932 8.70745L6.40031 8.00034L6.40031 8.00034L5.6932 8.70745ZM6.59802 9.61227L5.89091 10.3194L5.89091 10.3194L6.59802 9.61227ZM9.40198 9.61227L8.69487 8.90517H8.69487L9.40198 9.61227ZM11.0137 8.00059L11.7208 8.7077L12.4197 8.00878L11.729 7.30177L11.0137 8.00059ZM10.9722 7.95869L10.2651 8.6658L10.9722 7.95869ZM9.40197 6.38842L10.1091 5.68132L9.40197 6.38842ZM6.59801 6.38842L7.30512 7.09553L7.30512 7.09553L6.59801 6.38842ZM5.6932 7.29323L4.9861 6.58613L4.98609 6.58613L5.6932 7.29323ZM5.38567 7.60077L6.09277 8.30788L6.09277 8.30788L5.38567 7.60077ZM4.9861 8.00034L4.27899 7.29323L3.57188 8.00034L4.27899 8.70745L4.9861 8.00034ZM11.6825 11.6825L10.9754 10.9754L10.7194 11.2314L10.6866 11.5919L11.6825 11.6825ZM11.6825 11.6825L12.3896 12.3896L12.6456 12.1336L12.6784 11.773L11.6825 11.6825ZM13.0343 10.3307L13.7414 11.0378L13.0343 10.3307ZM13.0344 5.66946L12.325 6.37422L12.3275 6.37671L13.0344 5.66946ZM13.0343 5.66931L13.7437 4.96456L13.7414 4.96221L13.0343 5.66931ZM10.3307 2.96571L9.62357 3.67282V3.67282L10.3307 2.96571ZM5.66945 2.96557L4.9622 2.25861L4.96146 2.25934L5.66945 2.96557ZM5.66931 2.96571L6.37641 3.67282L6.37729 3.67194L5.66931 2.96571ZM4.42537 4.20965L3.71827 3.50254L3.63025 3.59055L3.5665 3.69746L4.42537 4.20965ZM4.34208 4.34931L4.82388 5.2256L5.06186 5.09475L5.20095 4.86151L4.34208 4.34931ZM4.2169 4.41814L3.7351 3.54186L3.61041 3.61042L3.50979 3.71104L4.2169 4.41814ZM2.96571 5.66933L2.25861 4.96222H2.25861L2.96571 5.66933ZM2.96557 10.3306L3.67356 9.62433L3.67253 9.62331L2.96557 10.3306ZM2.96571 10.3307L2.25773 11.0369L2.25861 11.0378L2.96571 10.3307ZM5.66931 13.0343L4.96221 13.7414L5.66931 13.0343ZM10.3305 13.0344L11.0378 13.7414L11.04 13.7392L10.3305 13.0344ZM10.3307 13.0343L9.62358 12.3272L9.62125 12.3295L10.3307 13.0343ZM11.4249 11.9401L12.132 12.6472L12.3896 12.3896L12.4212 12.0267L11.4249 11.9401ZM11.4249 11.9401L10.7178 11.2329L10.4602 11.4905L10.4287 11.8534L11.4249 11.9401ZM11.0378 13.7414L10.3307 13.0343L10.3305 13.0344L11.0378 13.7414ZM12.3896 12.3896L13.0967 13.0967L13.3543 12.8391L13.3858 12.4762L12.3896 12.3896ZM4.96221 13.7414L5.66931 13.0343L4.96221 13.7414ZM2.25861 11.0378L2.96571 10.3307L2.96557 10.3306L2.25861 11.0378ZM2.25861 4.96222L2.96571 5.66933H2.96571L2.25861 4.96222ZM3.61041 3.61042L3.12861 2.73414L3.00392 2.8027L2.9033 2.90331L3.61041 3.61042ZM3.62231 3.60388L4.10411 4.48016L4.34208 4.34931L4.48118 4.11607L3.62231 3.60388ZM3.64112 3.57968L4.34823 4.28679L3.64112 3.57968ZM4.9622 2.25861L5.66931 2.96571L5.66945 2.96557L4.9622 2.25861ZM11.0378 2.25861L10.3307 2.96571L11.0378 2.25861ZM13.7414 4.96221L13.0343 5.66931L13.0344 5.66946L13.7414 4.96221ZM13.7414 11.0378L14.4485 11.7449L13.7414 11.0378ZM12.3896 12.3896L11.6825 11.6825L11.4249 11.9401L11.3934 12.303L12.3896 12.3896ZM3.56178 9.40432L3.56206 9.40461L4.99566 8.01005L4.99538 8.00976L3.56178 9.40432ZM3.56898 9.41165L3.57096 9.41363L4.98619 8.00044L4.98421 7.99846L3.56898 9.41165ZM3.56489 9.40754L3.5676 9.41027L4.98559 7.99984L4.98288 7.99711L3.56489 9.40754ZM4.27769 7.28812L3.56869 7.99331L4.97908 9.41134L5.68808 8.70615L4.27769 7.28812ZM3.57188 8.00034L4.27578 8.70424L5.68999 7.29003L4.9861 6.58613L3.57188 8.00034ZM5.1838 4.97421L3.57188 6.58613L4.9861 8.00034L6.59801 6.38842L5.1838 4.97421ZM10.8162 4.97421C9.26093 3.41895 6.73906 3.41895 5.1838 4.97421L6.59801 6.38842C7.37223 5.61421 8.62776 5.61421 9.40197 6.38842L10.8162 4.97421ZM12.3865 6.54448L10.8162 4.97421L9.40197 6.38842L10.9722 7.95869L12.3865 6.54448ZM12.4443 6.60296C12.4251 6.58335 12.4058 6.56385 12.3865 6.54448L10.9722 7.95869C10.9861 7.9726 10.9999 7.98656 11.0137 8.00059L12.4443 6.60296ZM13.135 7.30996L12.4443 6.60295L11.0137 8.00059L11.7044 8.70761L13.135 7.30996ZM12.4279 9.41481L13.1268 8.71589L11.7126 7.30168L11.0137 8.00059L12.4279 9.41481ZM10.8162 11.0265L12.4279 9.41481L11.0137 8.00059L9.40198 9.61227L10.8162 11.0265ZM5.18381 11.0265C6.73907 12.5817 9.26093 12.5817 10.8162 11.0265L9.40198 9.61227C8.62777 10.3865 7.37223 10.3865 6.59802 9.61227L5.18381 11.0265ZM4.27899 10.1217L5.18381 11.0265L6.59802 9.61227L5.6932 8.70745L4.27899 10.1217ZM5.69279 10.1221L5.6932 10.1217L4.27898 8.70745L4.27858 8.70786L5.69279 10.1221ZM3.57783 9.42051L4.27817 10.1217L5.6932 8.70827L4.99286 8.00712L3.57783 9.42051ZM3.57189 9.41457L3.57824 9.42092L4.99245 8.00671L4.9861 8.00036L3.57189 9.41457ZM3.57175 9.41443L3.57189 9.41457L4.9861 8.00036L4.98597 8.00022L3.57175 9.41443ZM4.98609 9.41455L5.89091 10.3194L7.30513 8.90517L6.40031 8.00034L4.98609 9.41455ZM5.89091 10.3194C7.05565 11.4841 8.94435 11.4841 10.1091 10.3194L8.69487 8.90517C8.31119 9.28885 7.68882 9.28885 7.30513 8.90517L5.89091 10.3194ZM10.1091 10.3194L11.7208 8.7077L10.3066 7.29349L8.69487 8.90517L10.1091 10.3194ZM11.729 7.30177C11.7125 7.28495 11.696 7.26823 11.6794 7.25159L10.2651 8.6658C10.2763 8.67695 10.2874 8.68816 10.2984 8.69942L11.729 7.30177ZM11.6794 7.25159L10.1091 5.68132L8.69487 7.09553L10.2651 8.6658L11.6794 7.25159ZM10.1091 5.68132C8.94434 4.51658 7.05564 4.51658 5.89091 5.68132L7.30512 7.09553C7.68881 6.71184 8.31118 6.71184 8.69487 7.09553L10.1091 5.68132ZM5.89091 5.68132L4.9861 6.58613L6.40031 8.00034L7.30512 7.09553L5.89091 5.68132ZM4.98609 6.58613L4.67856 6.89366L6.09277 8.30788L6.40031 8.00034L4.98609 6.58613ZM4.67856 6.89366L4.27899 7.29323L5.6932 8.70745L6.09277 8.30788L4.67856 6.89366ZM6.40031 8.00034L5.6932 7.29323L4.27899 8.70745L4.9861 9.41455L6.40031 8.00034ZM10.6866 11.5919L10.6866 11.592L12.6784 11.773L12.6784 11.773L10.6866 11.5919ZM12.3272 9.62358L10.9754 10.9754L12.3896 12.3896L13.7414 11.0378L12.3272 9.62358ZM12.3275 6.37671C13.224 7.27291 13.2244 8.72634 12.3272 9.62358L13.7414 11.0378C15.4195 9.35964 15.4195 6.63965 13.7414 4.96221L12.3275 6.37671ZM12.3248 6.37407L12.325 6.37421L13.7439 4.9647L13.7437 4.96456L12.3248 6.37407ZM9.62357 3.67282L12.3272 6.37642L13.7414 4.96221L11.0378 2.25861L9.62357 3.67282ZM6.3767 3.67253C7.2729 2.77597 8.72633 2.77558 9.62357 3.67282L11.0378 2.25861C9.35963 0.580452 6.63965 0.580477 4.9622 2.25861L6.3767 3.67253ZM6.37729 3.67194L6.37744 3.6718L4.96146 2.25934L4.96132 2.25949L6.37729 3.67194ZM5.13248 4.91675L6.37641 3.67282L4.9622 2.25861L3.71827 3.50254L5.13248 4.91675ZM5.20095 4.86151L5.28425 4.72184L3.5665 3.69746L3.48321 3.83712L5.20095 4.86151ZM4.69869 5.29443L4.82388 5.2256L3.86028 3.47303L3.7351 3.54186L4.69869 5.29443ZM3.67282 6.37643L4.924 5.12525L3.50979 3.71104L2.25861 4.96222L3.67282 6.37643ZM3.67253 9.62331C2.77597 8.72711 2.77558 7.27367 3.67282 6.37643L2.25861 4.96222C0.580452 6.64038 0.580477 9.36036 2.25861 11.0378L3.67253 9.62331ZM3.6737 9.62447L3.67356 9.62433L2.25758 11.0368L2.25773 11.0369L3.6737 9.62447ZM6.37642 12.3272L3.67282 9.6236L2.25861 11.0378L4.96221 13.7414L6.37642 12.3272ZM9.62329 12.3275C8.72709 13.224 7.27366 13.2244 6.37642 12.3272L4.96221 13.7414C6.64036 15.4196 9.36035 15.4195 11.0378 13.7414L9.62329 12.3275ZM9.62125 12.3295L9.62111 12.3297L11.04 13.7392L11.0401 13.7391L9.62125 12.3295ZM10.7178 11.233L9.62358 12.3272L11.0378 13.7414L12.132 12.6472L10.7178 11.233ZM10.4287 11.8534L10.4287 11.8534L12.4212 12.0267L12.4212 12.0267L10.4287 11.8534ZM10.9754 10.9754L10.7178 11.2329L12.132 12.6472L12.3896 12.3896L10.9754 10.9754ZM11.7449 14.4485L13.0967 13.0967L11.6825 11.6825L10.3307 13.0343L11.7449 14.4485ZM4.2551 14.4485C6.32369 16.5171 9.67695 16.5173 11.745 14.4484L10.3305 13.0344C9.04372 14.3218 6.95701 14.322 5.66931 13.0343L4.2551 14.4485ZM1.5515 11.7449L4.2551 14.4485L5.66931 13.0343L2.96571 10.3307L1.5515 11.7449ZM1.5515 4.25511C-0.517087 6.3237 -0.517294 9.67696 1.55164 11.7451L2.96557 10.3306C1.67822 9.04373 1.67802 6.95702 2.96571 5.66933L1.5515 4.25511ZM2.9033 2.90331L1.5515 4.25511L2.96571 5.66933L4.31751 4.31753L2.9033 2.90331ZM3.14051 2.72759L3.12861 2.73414L4.09221 4.4867L4.10411 4.48016L3.14051 2.72759ZM2.93402 2.87258C2.86754 2.93905 2.81045 3.01285 2.76344 3.09169L4.48118 4.11607C4.44466 4.1773 4.40022 4.2348 4.34823 4.28679L2.93402 2.87258ZM4.25509 1.5515L2.93402 2.87258L4.34823 4.28679L5.66931 2.96571L4.25509 1.5515ZM11.7449 1.5515C9.67631 -0.517087 6.32305 -0.517294 4.25495 1.55164L5.66945 2.96557C6.95627 1.67822 9.04298 1.67802 10.3307 2.96571L11.7449 1.5515ZM14.4485 4.2551L11.7449 1.5515L10.3307 2.96571L13.0343 5.66931L14.4485 4.2551ZM14.4485 11.7449C16.5171 9.67631 16.5173 6.32305 14.4483 4.25496L13.0344 5.66946C14.3218 6.95628 14.322 9.04299 13.0343 10.3307L14.4485 11.7449ZM13.0967 13.0967L14.4485 11.7449L13.0343 10.3307L11.6825 11.6825L13.0967 13.0967ZM13.3858 12.4762L13.3858 12.4762L11.3934 12.303L11.3934 12.303L13.3858 12.4762Z" fill="url(#paint0_radial_3409_43434)" mask="url(#path-1-inside-1_3409_43434)"/>
<ellipse cx="8.5" cy="8" rx="4.5" ry="4" fill="#F5F5F5"/>
<path d="M9 6H7C6.44772 6 6 6.44772 6 7V9C6 9.55228 6.44772 10 7 10H9C9.55228 10 10 9.55228 10 9V7C10 6.44772 9.55228 6 9 6Z" stroke="url(#paint1_radial_3409_43434)"/>
<defs>
<radialGradient id="paint0_radial_3409_43434" cx="0" cy="0" r="1" gradientUnits="userSpaceOnUse" gradientTransform="translate(0.889841 -1.45927) rotate(60.1184) scale(28.3217 193.395)">
<stop stop-color="#4944EC"/>
<stop offset="0.76056" stop-color="#6B8CFF"/>
</radialGradient>
<radialGradient id="paint1_radial_3409_43434" cx="0" cy="0" r="1" gradientUnits="userSpaceOnUse" gradientTransform="translate(5.96853 5.29735) rotate(60.1184) scale(8.09192 55.2557)">
<stop stop-color="#4944EC"/>
<stop offset="0.76056" stop-color="#6B8CFF"/>
</radialGradient>
</defs>
</svg>
