<svg width="16" height="16" viewBox="0 0 16 16" fill="none" xmlns="http://www.w3.org/2000/svg">
<path fill-rule="evenodd" clip-rule="evenodd" d="M1.42682 5.63862C0.85828 5.06739 0.857729 4.75491 1.42516 4.18573L1.42681 4.18406C1.71519 3.8951 2.00937 3.58571 2.30674 3.27297L2.30675 3.27296C2.59622 2.96853 2.88871 2.66092 3.18181 2.36588C3.73082 1.81324 3.88617 1.97138 4.19468 2.28544L4.1947 2.28546C4.2201 2.31131 4.24654 2.33822 4.27431 2.36588C4.29653 2.38799 4.31815 2.40923 4.33904 2.42976C4.66168 2.7467 4.81047 2.89286 4.27431 3.45574C3.70344 4.05506 3.61259 4.18406 3.61259 4.18406H9.90909C12.7735 4.18406 15 5.63861 15 8.5477C15 11.4568 12.8182 12.9113 9.90909 12.9113H5.54545C5.14379 12.9113 4.81818 12.5857 4.81818 12.1841C4.81818 11.7824 5.14379 11.4568 5.54545 11.4568H9.90909C12.0909 11.4568 13.5455 10.7295 13.5455 8.5477C13.5455 6.36588 11.2145 5.63861 9.90909 5.63861H6.82566L6.82137 5.63862H3.61423C3.62861 5.65798 3.74557 5.8096 4.27431 6.3647C4.81047 6.92758 4.66168 7.07374 4.33904 7.39068C4.31815 7.4112 4.29653 7.43244 4.27431 7.45456C4.24653 7.48222 4.22009 7.50914 4.19468 7.535C3.88617 7.84905 3.73082 8.00719 3.18181 7.45456C2.88871 7.15951 2.59621 6.8519 2.30674 6.54747C2.02069 6.24662 1.73759 5.94889 1.45977 5.66946C1.44843 5.65957 1.43744 5.64929 1.42682 5.63862Z" fill="url(#paint0_radial_2177_21791)"/>
<defs>
<radialGradient id="paint0_radial_2177_21791" cx="0" cy="0" r="1" gradientUnits="userSpaceOnUse" gradientTransform="translate(0.889841 0.0832947) rotate(53.6005) scale(23.778 179.531)">
<stop stop-color="#4944EC"/>
<stop offset="0.76056" stop-color="#6B8CFF"/>
</radialGradient>
</defs>
</svg>
