<svg width="16" height="16" viewBox="0 0 16 16" fill="none" xmlns="http://www.w3.org/2000/svg">
<g clip-path="url(#clip0_2177_21835)">
<rect width="16" height="16" rx="4" fill="#4F5AFF"/>
<mask id="path-2-outside-1_2177_21835" maskUnits="userSpaceOnUse" x="0.4375" y="0" width="16" height="16" fill="black">
<rect fill="white" x="0.4375" width="16" height="16"/>
<path fill-rule="evenodd" clip-rule="evenodd" d="M2.98764 12.6191C2.61299 12.4025 2.29428 12.1156 2.04355 11.7822C1.99161 11.7146 1.94255 11.6439 1.89665 11.5702C1.88267 11.5479 1.86898 11.5254 1.85559 11.5025L1.86691 11.5213L1.85587 11.5025C1.58516 11.0413 1.4375 10.5154 1.4375 9.97325V6.0247C1.4375 4.94046 2.02813 3.92905 2.98791 3.37884L6.44968 1.41266C6.9323 1.13833 7.46385 1.00078 7.99555 1L7.99985 1C8.53306 1 9.06627 1.13755 9.55026 1.41266L13.012 3.37884C13.9718 3.92905 14.5624 4.94046 14.5624 6.0247V9.97325C14.5624 10.5235 14.4148 11.0494 14.1441 11.5025L14.1553 11.4833L14.1441 11.5025C13.8815 11.9556 13.4878 12.344 13.012 12.6191L9.55024 14.5934C8.59046 15.1355 7.40919 15.1355 6.44941 14.5934L2.98764 12.6191Z"/>
</mask>
<path fill-rule="evenodd" clip-rule="evenodd" d="M2.98764 12.6191C2.61299 12.4025 2.29428 12.1156 2.04355 11.7822C1.99161 11.7146 1.94255 11.6439 1.89665 11.5702C1.88267 11.5479 1.86898 11.5254 1.85559 11.5025L1.86691 11.5213L1.85587 11.5025C1.58516 11.0413 1.4375 10.5154 1.4375 9.97325V6.0247C1.4375 4.94046 2.02813 3.92905 2.98791 3.37884L6.44968 1.41266C6.9323 1.13833 7.46385 1.00078 7.99555 1L7.99985 1C8.53306 1 9.06627 1.13755 9.55026 1.41266L13.012 3.37884C13.9718 3.92905 14.5624 4.94046 14.5624 6.0247V9.97325C14.5624 10.5235 14.4148 11.0494 14.1441 11.5025L14.1553 11.4833L14.1441 11.5025C13.8815 11.9556 13.4878 12.344 13.012 12.6191L9.55024 14.5934C8.59046 15.1355 7.40919 15.1355 6.44941 14.5934L2.98764 12.6191Z" fill="white"/>
<path d="M2.04355 11.7822L2.8428 11.1811L2.83648 11.1729L2.04355 11.7822ZM2.98764 12.6191L2.48707 13.4848L2.49223 13.4878L2.98764 12.6191ZM1.89665 11.5702L2.7455 11.0416L2.74387 11.039L1.89665 11.5702ZM1.85559 11.5025L2.71227 10.9867L0.992789 12.008L1.85559 11.5025ZM1.86691 11.5213L1.01022 12.0371L2.72906 11.0147L1.86691 11.5213ZM1.85587 11.5025L0.99345 12.0087L0.993708 12.0091L1.85587 11.5025ZM2.98791 3.37884L2.49404 2.5093L2.49057 2.51129L2.98791 3.37884ZM6.44968 1.41266L6.94355 2.28219L6.94384 2.28203L6.44968 1.41266ZM7.99555 1L7.99477 3.39746e-06L7.99408 4.41074e-06L7.99555 1ZM7.99985 1V-3.57628e-07L7.99907 2.98023e-07L7.99985 1ZM9.55026 1.41266L9.0561 2.28203L9.05639 2.28219L9.55026 1.41266ZM13.012 3.37884L13.5094 2.51128L13.5059 2.50931L13.012 3.37884ZM14.1441 11.5025L13.2797 10.9997L15.0025 12.0154L14.1441 11.5025ZM14.1553 11.4833L15.0197 11.9861L13.2914 10.9796L14.1553 11.4833ZM14.1441 11.5025L13.2802 10.9988L13.2788 11.0012L14.1441 11.5025ZM13.012 12.6191L13.5074 13.4878L13.5126 13.4848L13.012 12.6191ZM9.55024 14.5934L10.042 15.4641L10.0456 15.462L9.55024 14.5934ZM6.44941 14.5934L5.954 15.462L5.9576 15.4641L6.44941 14.5934ZM1.24434 12.3833C1.57411 12.8218 1.99365 13.1995 2.48708 13.4848L3.4882 11.7534C3.23232 11.6054 3.01446 11.4095 2.84276 11.1812L1.24434 12.3833ZM1.0478 12.0989C1.11107 12.2005 1.1788 12.2981 1.25062 12.3915L2.83648 11.1729C2.80442 11.1312 2.77403 11.0874 2.7455 11.0416L1.0478 12.0989ZM0.992789 12.008C1.01124 12.0395 1.03012 12.0707 1.04943 12.1015L2.74387 11.039C2.73521 11.0252 2.72672 11.0112 2.71839 10.997L0.992789 12.008ZM2.72359 11.0054L2.71227 10.9867L0.998908 12.0183L1.01022 12.0371L2.72359 11.0054ZM0.993708 12.0091L1.00475 12.0279L2.72906 11.0147L2.71802 10.9959L0.993708 12.0091ZM0.4375 9.97325C0.4375 10.698 0.63502 11.398 0.99345 12.0087L2.71828 10.9963C2.5353 10.6846 2.4375 10.3328 2.4375 9.97325H0.4375ZM0.4375 6.0247V9.97325H2.4375V6.0247H0.4375ZM2.49057 2.51129C1.22593 3.23626 0.4375 4.5752 0.4375 6.0247H2.4375C2.4375 5.30573 2.83034 4.62184 3.48525 4.2464L2.49057 2.51129ZM5.95581 0.543121L2.49404 2.50931L3.48178 4.24838L6.94355 2.28219L5.95581 0.543121ZM7.99408 4.41074e-06C7.28999 0.0010379 6.58864 0.183416 5.95553 0.543284L6.94384 2.28203C7.27595 2.09325 7.63772 2.00053 7.99701 2L7.99408 4.41074e-06ZM7.99907 2.98023e-07L7.99477 3.63588e-06L7.99632 2L8.00062 2L7.99907 2.98023e-07ZM10.0444 0.543284C9.40949 0.182386 8.70595 0 7.99985 0V2C8.36017 2 8.72305 2.09272 9.0561 2.28203L10.0444 0.543284ZM13.5059 2.50931L10.0441 0.543121L9.05639 2.28219L12.5182 4.24838L13.5059 2.50931ZM15.5624 6.0247C15.5624 4.57519 14.774 3.23626 13.5094 2.51129L12.5147 4.2464C13.1696 4.62184 13.5624 5.30573 13.5624 6.0247H15.5624ZM15.5624 9.97325V6.0247H13.5624V9.97325H15.5624ZM15.0025 12.0154C15.3662 11.4066 15.5624 10.7033 15.5624 9.97325H13.5624C13.5624 10.3436 13.4633 10.6922 13.2856 10.9896L15.0025 12.0154ZM13.2909 10.9805L13.2797 10.9997L15.0085 12.0053L15.0197 11.9861L13.2909 10.9805ZM15.0079 12.0062L15.0191 11.987L13.2914 10.9796L13.2802 10.9988L15.0079 12.0062ZM13.5126 13.4848C14.1319 13.1267 14.6548 12.6158 15.0093 12.0038L13.2788 11.0012C13.1083 11.2955 12.8437 11.5613 12.5114 11.7534L13.5126 13.4848ZM10.0456 15.462L13.5074 13.4878L12.5166 11.7504L9.05483 13.7247L10.0456 15.462ZM5.9576 15.4641C7.22259 16.1786 8.77705 16.1786 10.042 15.4641L9.05843 13.7227C8.40386 14.0924 7.59578 14.0924 6.94121 13.7227L5.9576 15.4641ZM2.49223 13.4878L5.954 15.462L6.94481 13.7247L3.48304 11.7504L2.49223 13.4878Z" fill="white" mask="url(#path-2-outside-1_2177_21835)"/>
<path d="M13.1759 7.9263L10.6576 6.49414V8.08813C10.6576 8.92962 10.2228 9.70639 9.5173 10.1595L9.40245 10.2242L7.9997 11.0253L5.4813 12.4574C4.2098 13.1776 2.58556 12.7487 1.85547 11.5027C2.12618 11.9558 2.51173 12.3441 2.98752 12.6193L6.44929 14.5935C7.40907 15.1356 8.59033 15.1356 9.55011 14.5935L13.0119 12.6193C13.4877 12.3441 13.8814 11.9558 14.1439 11.5027C14.8822 10.2485 14.4475 8.64643 13.1759 7.9263Z" fill="url(#paint0_linear_2177_21835)"/>
<path d="M14.5618 9.97363C14.5618 10.0465 14.5618 10.1193 14.5537 10.2002C14.5618 10.1274 14.5618 10.0545 14.5618 9.97363Z" fill="url(#paint1_linear_2177_21835)"/>
<path d="M14.373 11.0173C14.3895 10.9849 14.3977 10.9445 14.4141 10.9121C14.3977 10.9445 14.3895 10.9768 14.373 11.0173Z" fill="url(#paint2_linear_2177_21835)"/>
<path d="M13.0118 3.37884L9.55006 1.41266C9.06607 1.13755 8.53286 1 7.99965 1C6.53127 1 5.3418 2.17324 5.3418 3.62158V6.49399L6.74455 5.69295C7.48284 5.27221 8.3852 5.25602 9.1399 5.63631L9.25474 5.69295L10.6575 6.49399L13.1759 7.92615C14.4474 8.64628 14.8822 10.2484 14.1439 11.5025C14.4146 11.0494 14.5622 10.5235 14.5622 9.97325V6.0247C14.5622 4.94046 13.9716 3.92905 13.0118 3.37884Z" fill="url(#paint3_linear_2177_21835)"/>
<path d="M5.4817 12.4573L8.0001 11.0251L6.59734 10.2241C5.85905 9.80333 5.39146 9.04275 5.35045 8.20935H5.34225V8.08798V6.49399V3.62158C5.34225 2.17324 6.53172 1 8.0001 1C7.46689 1 6.93367 1.13755 6.44968 1.41266L2.98791 3.37884C2.02813 3.92905 1.4375 4.94046 1.4375 6.0247V9.97325C1.4375 10.5154 1.58516 11.0413 1.85587 11.5025C2.58595 12.7567 4.2102 13.1855 5.4817 12.4573Z" fill="url(#paint4_linear_2177_21835)"/>
<path d="M15 2L14.0303 2.53027L13.5 3.5L12.9697 2.53027L12 2L12.9697 1.46973L13.5 0.5L14.0303 1.46973L15 2Z" fill="#FFCD02"/>
<path d="M3 7L2.03027 7.53027L1.5 8.5L0.969728 7.53027L0 7L0.969728 6.46973L1.5 5.5L2.03027 6.46973L3 7Z" fill="#FFCD02"/>
<path d="M16 11.5L13.7373 12.7373L12.5 15L11.2627 12.7373L9 11.5L11.2627 10.2627L12.5 8L13.7373 10.2627L16 11.5Z" fill="#FFCD02"/>
</g>
<defs>
<linearGradient id="paint0_linear_2177_21835" x1="11.7741" y1="7.33984" x2="6.05107" y2="13.9002" gradientUnits="userSpaceOnUse">
<stop offset="8.07343e-08" stop-color="#4128D3"/>
<stop offset="0.284" stop-color="#4F5AFF"/>
<stop offset="0.9991" stop-color="#6A8BFF"/>
</linearGradient>
<linearGradient id="paint1_linear_2177_21835" x1="14.7158" y1="9.90866" x2="8.98269" y2="16.3913" gradientUnits="userSpaceOnUse">
<stop offset="8.07343e-08" stop-color="#4128D3"/>
<stop offset="0.284" stop-color="#4F5AFF"/>
<stop offset="0.9991" stop-color="#6A8BFF"/>
</linearGradient>
<linearGradient id="paint2_linear_2177_21835" x1="15.0652" y1="10.2116" x2="9.34216" y2="16.7719" gradientUnits="userSpaceOnUse">
<stop offset="8.07343e-08" stop-color="#4128D3"/>
<stop offset="0.284" stop-color="#4F5AFF"/>
<stop offset="0.9991" stop-color="#6A8BFF"/>
</linearGradient>
<linearGradient id="paint3_linear_2177_21835" x1="5.34508" y1="6.25141" x2="14.5622" y2="6.25141" gradientUnits="userSpaceOnUse">
<stop offset="8.07343e-08" stop-color="#4128D3"/>
<stop offset="0.284" stop-color="#4F5AFF"/>
<stop offset="0.9991" stop-color="#6A8BFF"/>
</linearGradient>
<linearGradient id="paint4_linear_2177_21835" x1="6.4263" y1="12.2887" x2="4.54769" y2="4.81451" gradientUnits="userSpaceOnUse">
<stop offset="8.07343e-08" stop-color="#4128D3"/>
<stop offset="0.284" stop-color="#4F5AFF"/>
<stop offset="0.9991" stop-color="#6A8BFF"/>
</linearGradient>
<clipPath id="clip0_2177_21835">
<rect width="16" height="16" fill="white"/>
</clipPath>
</defs>
</svg>
