<svg width="16" height="16" viewBox="0 0 16 16" fill="none" xmlns="http://www.w3.org/2000/svg">
<path d="M15 2L14.0303 2.53027L13.5 3.5L12.9697 2.53027L12 2L12.9697 1.46973L13.5 0.5L14.0303 1.46973L15 2Z" fill="#FFCD02"/>
<path d="M13.1759 7.92606L10.6576 6.4939V8.08788C10.6576 8.92938 10.2228 9.70614 9.5173 10.1593L9.40245 10.224L7.9997 11.025L5.4813 12.4572C4.2098 13.1773 2.58556 12.7485 1.85547 11.5024C2.12618 11.9555 2.51173 12.3439 2.98752 12.619L6.44929 14.5933C7.40907 15.1354 8.59033 15.1354 9.55011 14.5933L13.0119 12.619C13.4877 12.3439 13.8814 11.9555 14.1439 11.5024C14.8822 10.2483 14.4475 8.64618 13.1759 7.92606Z" fill="url(#paint0_linear_2177_21878)"/>
<path d="M14.5618 9.97339C14.5618 10.0462 14.5618 10.119 14.5537 10.1999C14.5618 10.1271 14.5618 10.0543 14.5618 9.97339Z" fill="url(#paint1_linear_2177_21878)"/>
<path d="M14.373 11.0171C14.3895 10.9847 14.3977 10.9442 14.4141 10.9119C14.3977 10.9442 14.3895 10.9766 14.373 11.0171Z" fill="url(#paint2_linear_2177_21878)"/>
<path d="M13.0118 3.37884L9.55006 1.41266C9.06607 1.13755 8.53286 1 7.99965 1C6.53127 1 5.3418 2.17324 5.3418 3.62158V6.49399L6.74455 5.69295C7.48284 5.27221 8.3852 5.25602 9.1399 5.63631L9.25474 5.69295L10.6575 6.49399L13.1759 7.92615C14.4474 8.64628 14.8822 10.2484 14.1439 11.5025C14.4146 11.0494 14.5622 10.5235 14.5622 9.97325V6.0247C14.5622 4.94046 13.9716 3.92905 13.0118 3.37884Z" fill="url(#paint3_linear_2177_21878)"/>
<path d="M5.4817 12.4573L8.0001 11.0251L6.59734 10.2241C5.85905 9.80333 5.39146 9.04275 5.35045 8.20935H5.34225V8.08798V6.49399V3.62158C5.34225 2.17324 6.53172 1 8.0001 1C7.46689 1 6.93367 1.13755 6.44968 1.41266L2.98791 3.37884C2.02813 3.92905 1.4375 4.94046 1.4375 6.0247V9.97325C1.4375 10.5154 1.58516 11.0413 1.85587 11.5025C2.58595 12.7567 4.2102 13.1855 5.4817 12.4573Z" fill="url(#paint4_linear_2177_21878)"/>
<path d="M3 7L2.03027 7.53027L1.5 8.5L0.969728 7.53027L0 7L0.969728 6.46973L1.5 5.5L2.03027 6.46973L3 7Z" fill="#FFCD02"/>
<path d="M16 11.5L13.7373 12.7373L12.5 15L11.2627 12.7373L9 11.5L11.2627 10.2627L12.5 8L13.7373 10.2627L16 11.5Z" fill="#FFCD02"/>
<defs>
<linearGradient id="paint0_linear_2177_21878" x1="11.7741" y1="7.3396" x2="6.05107" y2="13.8999" gradientUnits="userSpaceOnUse">
<stop offset="8.07343e-08" stop-color="#4128D3"/>
<stop offset="0.284" stop-color="#4F5AFF"/>
<stop offset="0.9991" stop-color="#6A8BFF"/>
</linearGradient>
<linearGradient id="paint1_linear_2177_21878" x1="14.7158" y1="9.90842" x2="8.98269" y2="16.391" gradientUnits="userSpaceOnUse">
<stop offset="8.07343e-08" stop-color="#4128D3"/>
<stop offset="0.284" stop-color="#4F5AFF"/>
<stop offset="0.9991" stop-color="#6A8BFF"/>
</linearGradient>
<linearGradient id="paint2_linear_2177_21878" x1="15.0652" y1="10.2114" x2="9.34216" y2="16.7716" gradientUnits="userSpaceOnUse">
<stop offset="8.07343e-08" stop-color="#4128D3"/>
<stop offset="0.284" stop-color="#4F5AFF"/>
<stop offset="0.9991" stop-color="#6A8BFF"/>
</linearGradient>
<linearGradient id="paint3_linear_2177_21878" x1="5.34508" y1="6.25141" x2="14.5622" y2="6.25141" gradientUnits="userSpaceOnUse">
<stop offset="8.07343e-08" stop-color="#4128D3"/>
<stop offset="0.284" stop-color="#4F5AFF"/>
<stop offset="0.9991" stop-color="#6A8BFF"/>
</linearGradient>
<linearGradient id="paint4_linear_2177_21878" x1="6.4263" y1="12.2887" x2="4.54769" y2="4.81451" gradientUnits="userSpaceOnUse">
<stop offset="8.07343e-08" stop-color="#4128D3"/>
<stop offset="0.284" stop-color="#4F5AFF"/>
<stop offset="0.9991" stop-color="#6A8BFF"/>
</linearGradient>
</defs>
</svg>
