<svg width="16" height="16" viewBox="0 0 16 16" fill="none" xmlns="http://www.w3.org/2000/svg">
<g clip-path="url(#clip0_3409_43389)">
<rect width="16" height="16" rx="4" fill="white"/>
<rect width="16" height="16" rx="4" fill="#4F5AFF" fill-opacity="0.2"/>
<path d="M15 2L14.0303 2.53027L13.5 3.5L12.9697 2.53027L12 2L12.9697 1.46973L13.5 0.5L14.0303 1.46973L15 2Z" fill="#FFCD02"/>
<path d="M11.307 8.00034L9.69507 9.61226C8.92086 10.3865 7.66532 10.3865 6.89111 9.61226L5.27919 8.00034C4.23189 6.95235 3.71097 5.48859 3.86185 4.01458L3.9035 3.6104L2.5517 4.9622C0.873555 6.64035 0.873555 9.36033 2.5517 11.0378L5.2553 13.7414C6.93344 15.4195 9.65342 15.4195 11.3309 13.7414L12.6827 12.3896L12.7243 11.9854C12.8752 10.5121 12.355 9.04833 11.307 8.00034Z" fill="url(#paint0_linear_3409_43389)"/>
<path d="M5.27921 8.00034L6.89113 6.38842C7.66534 5.61421 8.92088 5.61421 9.69509 6.38842L11.2654 7.95869C12.3393 9.03262 12.8732 10.5333 12.7182 12.0441L12.6827 12.3896L14.0345 11.0378C15.7126 9.35965 15.7126 6.63967 14.0345 4.96221L11.3309 2.25861C9.65276 0.580464 6.93277 0.580464 5.25531 2.25861L3.93424 3.57968C3.91444 3.59948 3.90147 3.62611 3.89874 3.6541L3.86187 4.01458C3.71099 5.48859 4.23191 6.95236 5.27921 8.00034Z" fill="url(#paint1_linear_3409_43389)"/>
<path d="M3 7L2.03027 7.53027L1.5 8.5L0.969728 7.53027L0 7L0.969728 6.46973L1.5 5.5L2.03027 6.46973L3 7Z" fill="#FFCD02"/>
<path d="M16 11.5L13.7373 12.7373L12.5 15L11.2627 12.7373L9 11.5L11.2627 10.2627L12.5 8L13.7373 10.2627L16 11.5Z" fill="#FFCD02"/>
</g>
<defs>
<linearGradient id="paint0_linear_3409_43389" x1="11.3704" y1="7.742" x2="4.40183" y2="9.94542" gradientUnits="userSpaceOnUse">
<stop offset="8.07343e-08" stop-color="#4128D3"/>
<stop offset="0.284" stop-color="#4F5AFF"/>
<stop offset="0.9991" stop-color="#6A8BFF"/>
</linearGradient>
<linearGradient id="paint1_linear_3409_43389" x1="5.40042" y1="8.27275" x2="11.6506" y2="6.18937" gradientUnits="userSpaceOnUse">
<stop offset="8.07343e-08" stop-color="#4128D3"/>
<stop offset="0.284" stop-color="#4F5AFF"/>
<stop offset="0.9991" stop-color="#6A8BFF"/>
</linearGradient>
<clipPath id="clip0_3409_43389">
<rect width="16" height="16" fill="white"/>
</clipPath>
</defs>
</svg>
