<svg width="24" height="24" viewBox="0 0 24 24" fill="none" xmlns="http://www.w3.org/2000/svg">
<path fill-rule="evenodd" clip-rule="evenodd" d="M20.033 18.6098C20.2221 18.7975 20.3285 19.0529 20.3285 19.3193C20.3285 19.5857 20.2221 19.8411 20.033 20.0288C19.8454 20.2179 19.59 20.3243 19.3236 20.3243C19.0572 20.3243 18.8018 20.2179 18.6142 20.0288L12.0001 13.414L5.3859 20.0288C5.1983 20.2179 4.94293 20.3243 4.67653 20.3243C4.41013 20.3243 4.15476 20.2179 3.96717 20.0288C3.77802 19.8411 3.67163 19.5857 3.67163 19.3193C3.67163 19.0529 3.77802 18.7975 3.96717 18.6098L10.5813 11.9951L3.96717 5.38027C3.57539 4.98844 3.57539 4.35317 3.96717 3.96135C4.35894 3.56952 4.99413 3.56952 5.3859 3.96135L12.0001 10.5761L18.6142 3.96135C19.006 3.56952 19.6412 3.56952 20.033 3.96135C20.4247 4.35317 20.4247 4.98844 20.033 5.38027L13.4188 11.9951L20.033 18.6098Z" fill="white"/>
</svg>
