<svg width="24" height="24" viewBox="0 0 24 24" fill="none" xmlns="http://www.w3.org/2000/svg">
<path d="M10.568 2.01416C8.61698 2.01416 7.00598 3.49416 7.00598 5.35796V6.01416H6.56798C4.61698 6.01416 3.00598 7.49416 3.00598 9.35796V21.0142C3.00598 21.7576 3.77898 22.2529 4.44398 21.9204C5.13898 21.5728 8.84098 19.7219 10.006 19.1392L15.537 21.9204C16.202 22.2529 17.006 21.7576 17.006 21.0142V16.6704L19.537 17.9204C20.202 18.2529 21.006 17.7576 21.006 17.0142V5.35796C21.006 3.49416 19.364 2.01416 17.412 2.01416H10.568ZM10.568 4.01416H17.412C18.301 4.01416 19.006 4.64436 19.006 5.35796V15.3892L17.006 14.3892V9.35796C17.006 7.49416 15.364 6.01416 13.412 6.01416H9.00598V5.35796C9.00598 4.64436 9.67998 4.01416 10.568 4.01416ZM6.56798 8.01416H13.412C14.301 8.01416 15.006 8.64436 15.006 9.35796V19.3892L10.444 17.108C10.162 16.9672 9.81899 16.9672 9.53699 17.108C8.96999 17.3915 6.61898 18.5828 5.00598 19.3892V9.35796C5.00598 8.64436 5.67998 8.01416 6.56798 8.01416Z" fill="#585B58"/>
</svg>
