<svg width="24" height="24" viewBox="0 0 24 24" fill="none" xmlns="http://www.w3.org/2000/svg">
<path d="M10.568 2.01414C8.61695 2.01414 7.00595 3.49414 7.00595 5.35794V6.01414H6.56795C4.61695 6.01414 3.00595 7.49414 3.00595 9.35794V21.0141C3.00595 21.7575 3.77896 22.2528 4.44396 21.9203C5.13896 21.5727 8.84096 19.7218 10.006 19.1391L15.537 21.9203C16.202 22.2528 17.006 21.7575 17.006 21.0141V16.6703L19.537 17.9203C20.202 18.2528 21.006 17.7575 21.006 17.0141V5.35794C21.006 3.49414 19.364 2.01414 17.412 2.01414H10.568ZM10.568 4.01414H17.412C18.301 4.01414 19.006 4.64434 19.006 5.35794V15.3891L17.006 14.3891V9.35794C17.006 7.49414 15.364 6.01414 13.412 6.01414H9.00596V5.35794C9.00596 4.64434 9.67995 4.01414 10.568 4.01414Z" fill="white"/>
</svg>
