<svg width="24" height="24" viewBox="0 0 24 24" fill="none" xmlns="http://www.w3.org/2000/svg">
<path d="M10.5679 2.01414C8.61695 2.01414 7.00595 3.49414 7.00595 5.35794V6.01414H6.56795C4.61695 6.01414 3.00595 7.49414 3.00595 9.35794V21.0141C3.00595 21.7575 3.77895 22.2528 4.44395 21.9203C5.13895 21.5727 8.84095 19.7218 10.006 19.1391L15.537 21.9203C16.202 22.2528 17.006 21.7575 17.006 21.0141V16.6703L19.537 17.9203C20.202 18.2528 21.006 17.7575 21.006 17.0141V5.35794C21.006 3.49414 19.364 2.01414 17.412 2.01414H10.5679ZM10.5679 4.01414H17.412C18.301 4.01414 19.006 4.64434 19.006 5.35794V15.3891L17.006 14.3891V9.35794C17.006 7.49414 15.364 6.01414 13.412 6.01414H9.00595V5.35794C9.00595 4.64434 9.67995 4.01414 10.5679 4.01414ZM6.56795 8.01414H13.412C14.301 8.01414 15.006 8.64434 15.006 9.35794V19.3891L10.444 17.1079C10.162 16.9671 9.81896 16.9671 9.53696 17.1079C8.96996 17.3914 6.61895 18.5827 5.00595 19.3891V9.35794C5.00595 8.64434 5.67995 8.01414 6.56795 8.01414Z" fill="white"/>
<path d="M10.5679 2.01414C8.61695 2.01414 7.00595 3.49414 7.00595 5.35794V6.01414H6.56795C4.61695 6.01414 3.00595 7.49414 3.00595 9.35794V21.0141C3.00595 21.7575 3.77895 22.2528 4.44395 21.9203C5.13895 21.5727 8.84095 19.7218 10.006 19.1391L15.537 21.9203C16.202 22.2528 17.006 21.7575 17.006 21.0141V16.6703L19.537 17.9203C20.202 18.2528 21.006 17.7575 21.006 17.0141V5.35794C21.006 3.49414 19.364 2.01414 17.412 2.01414H10.5679ZM10.5679 4.01414H17.412C18.301 4.01414 19.006 4.64434 19.006 5.35794V15.3891L17.006 14.3891V9.35794C17.006 7.49414 15.364 6.01414 13.412 6.01414H9.00595V5.35794C9.00595 4.64434 9.67995 4.01414 10.5679 4.01414ZM6.56795 8.01414H13.412C14.301 8.01414 15.006 8.64434 15.006 9.35794V19.3891L10.444 17.1079C10.162 16.9671 9.81896 16.9671 9.53696 17.1079C8.96996 17.3914 6.61895 18.5827 5.00595 19.3891V9.35794C5.00595 8.64434 5.67995 8.01414 6.56795 8.01414Z" fill="#4F5AFF" fill-opacity="0.2"/>
</svg>
