<svg width="24" height="24" viewBox="0 0 24 24" fill="none" xmlns="http://www.w3.org/2000/svg">
<path d="M9.99836 2.01414C6.43736 2.01414 2.99835 5.41994 2.99835 8.98294C2.99835 8.99324 2.99835 9.00375 2.99835 9.01414C2.99835 11.4741 2.99835 14.4104 2.99835 14.6703C2.99835 16.5341 4.60937 18.0141 6.56037 18.0141H6.99836V18.6703C6.99836 20.5341 8.60937 22.0141 10.5604 22.0141H17.4364C19.3874 22.0141 20.9984 20.5341 20.9984 18.6703V9.35794C20.9984 7.49414 19.3874 6.01414 17.4364 6.01414H16.9984V5.35794C16.9984 3.49414 15.3874 2.01414 13.4364 2.01414C13.2224 2.01414 13.2124 2.01414 9.99836 2.01414ZM8.99836 4.26414V6.67035C8.99836 7.38395 8.32435 8.01414 7.43635 8.01414H5.21735C5.67635 6.24694 7.22636 4.73454 8.99836 4.26414ZM16.9984 8.01414H17.4364C18.3244 8.01414 18.9984 8.64434 18.9984 9.35794V18.6703C18.9984 19.3839 18.3244 20.0141 17.4364 20.0141H10.5604C9.67237 20.0141 8.99836 19.3839 8.99836 18.6703V18.0141H13.4364C15.3874 18.0141 16.9984 16.5341 16.9984 14.6703V8.01414Z" fill="white"/>
</svg>
