<svg fill="none" height="24" viewBox="0 0 24 24" width="24" xmlns="http://www.w3.org/2000/svg">
<path d="M9.99835 2.01416C6.43735 2.01416 2.99835 5.41996 2.99835 8.98296C2.99835 8.99326 2.99835 9.00376 2.99835 9.01416C2.99835 11.4742 2.99835 14.4105 2.99835 14.6704C2.99835 16.5342 4.60936 18.0142 6.56036 18.0142H6.99835V18.6704C6.99835 20.5342 8.60936 22.0142 10.5604 22.0142H17.4363C19.3873 22.0142 20.9984 20.5342 20.9984 18.6704V9.35796C20.9984 7.49416 19.3873 6.01416 17.4363 6.01416H16.9984V5.35796C16.9984 3.49416 15.3873 2.01416 13.4363 2.01416C13.2223 2.01416 13.2124 2.01416 9.99835 2.01416ZM10.9984 4.01416C12.1604 4.01416 13.2843 4.01416 13.4363 4.01416C14.3243 4.01416 14.9984 4.64436 14.9984 5.35796V14.6704C14.9984 15.384 14.3243 16.0142 13.4363 16.0142H6.56036C5.67236 16.0142 4.99835 15.384 4.99835 14.6704C4.99835 14.4564 4.99835 12.0945 4.99835 10.0142H7.43634C9.38634 10.0142 10.9984 8.53426 10.9984 6.67036V4.01416ZM8.99835 4.26416V6.67036C8.99835 7.38396 8.32434 8.01416 7.43634 8.01416H5.21735C5.67635 6.24696 7.22635 4.73456 8.99835 4.26416ZM16.9984 8.01416H17.4363C18.3243 8.01416 18.9984 8.64436 18.9984 9.35796V18.6704C18.9984 19.384 18.3243 20.0142 17.4363 20.0142H10.5604C9.67236 20.0142 8.99835 19.384 8.99835 18.6704V18.0142H13.4363C15.3873 18.0142 16.9984 16.5342 16.9984 14.6704V8.01416Z" fill="#585B58" />
</svg>