<svg width="24" height="24" viewBox="0 0 24 24" fill="none" xmlns="http://www.w3.org/2000/svg">
<path d="M9.99835 2.01414C6.43735 2.01414 2.99835 5.41994 2.99835 8.98294C2.99835 8.99324 2.99835 9.00375 2.99835 9.01414C2.99835 11.4741 2.99835 14.4104 2.99835 14.6703C2.99835 16.5341 4.60936 18.0141 6.56036 18.0141H6.99835V18.6703C6.99835 20.5341 8.60936 22.0141 10.5604 22.0141H17.4363C19.3873 22.0141 20.9984 20.5341 20.9984 18.6703V9.35794C20.9984 7.49414 19.3873 6.01414 17.4363 6.01414H16.9984V5.35794C16.9984 3.49414 15.3873 2.01414 13.4363 2.01414C13.2223 2.01414 13.2124 2.01414 9.99835 2.01414ZM10.9984 4.01414C12.1604 4.01414 13.2843 4.01414 13.4363 4.01414C14.3243 4.01414 14.9984 4.64434 14.9984 5.35794V14.6703C14.9984 15.3839 14.3243 16.0141 13.4363 16.0141H6.56036C5.67236 16.0141 4.99835 15.3839 4.99835 14.6703C4.99835 14.4563 4.99835 12.0944 4.99835 10.0141H7.43634C9.38634 10.0141 10.9984 8.53425 10.9984 6.67035V4.01414ZM8.99835 4.26414V6.67035C8.99835 7.38395 8.32434 8.01414 7.43634 8.01414H5.21735C5.67635 6.24694 7.22635 4.73454 8.99835 4.26414ZM16.9984 8.01414H17.4363C18.3243 8.01414 18.9984 8.64434 18.9984 9.35794V18.6703C18.9984 19.3839 18.3243 20.0141 17.4363 20.0141H10.5604C9.67236 20.0141 8.99835 19.3839 8.99835 18.6703V18.0141H13.4363C15.3873 18.0141 16.9984 16.5341 16.9984 14.6703V8.01414Z" fill="#585C8A"/>
</svg>
