<svg width="24" height="24" viewBox="0 0 24 24" fill="none" xmlns="http://www.w3.org/2000/svg">
<path d="M10.568 2.01416C8.61698 2.01416 7.00598 3.49416 7.00598 5.35796V6.01416H6.56798C4.61698 6.01416 3.00598 7.49416 3.00598 9.35796V21.0142C3.00598 21.7576 3.77899 22.2529 4.44399 21.9204C5.13899 21.5728 8.84099 19.7219 10.006 19.1392L15.537 21.9204C16.202 22.2529 17.006 21.7576 17.006 21.0142V16.6704L19.537 17.9204C20.202 18.2529 21.006 17.7576 21.006 17.0142V5.35796C21.006 3.49416 19.364 2.01416 17.412 2.01416H10.568ZM10.568 4.01416H17.412C18.301 4.01416 19.006 4.64436 19.006 5.35796V15.3892L17.006 14.3892V9.35796C17.006 7.49416 15.364 6.01416 13.412 6.01416H9.00599V5.35796C9.00599 4.64436 9.67998 4.01416 10.568 4.01416Z" fill="#292F8E"/>
</svg>
