<svg width="24" height="24" viewBox="0 0 24 24" fill="none" xmlns="http://www.w3.org/2000/svg">
<path d="M11.9978 1.95337C10.8928 1.95337 9.9978 2.84837 9.9978 3.95336H4.99781C4.44581 3.95336 3.99781 4.40136 3.99781 4.95336C3.99781 5.50536 4.44581 5.95336 4.99781 5.95336V17.9533C4.99781 20.1433 6.80281 21.9533 8.99781 21.9533H14.9978C17.1928 21.9533 18.9978 20.1483 18.9978 17.9533V5.95336C19.5498 5.95336 19.9978 5.50536 19.9978 4.95336C19.9978 4.40136 19.5498 3.95336 18.9978 3.95336H13.9978C13.9978 2.84837 13.1028 1.95337 11.9978 1.95337ZM6.99781 5.95336H16.9978V17.9533C16.9978 19.0503 16.1078 19.9533 15.0288 19.9533L8.99781 19.9223C7.89581 19.9223 6.99781 19.0323 6.99781 17.9533V5.95336ZM9.9978 7.95335C9.44581 7.95335 8.99781 8.40135 8.99781 8.95335V16.9533C8.99781 17.5053 9.44581 17.9533 9.9978 17.9533C10.5498 17.9533 10.9978 17.5053 10.9978 16.9533V8.95335C10.9978 8.40135 10.5498 7.95335 9.9978 7.95335ZM13.9978 7.95335C13.4458 7.95335 12.9978 8.40135 12.9978 8.95335V16.9533C12.9978 17.5053 13.4458 17.9533 13.9978 17.9533C14.5498 17.9533 14.9978 17.5053 14.9978 16.9533V8.95335C14.9978 8.40135 14.5498 7.95335 13.9978 7.95335Z" fill="#585B58"/>
</svg>
