<svg width="24" height="24" viewBox="0 0 24 24" fill="none" xmlns="http://www.w3.org/2000/svg">
<path d="M11.9978 1.95325C10.8928 1.95325 9.9978 2.84824 9.9978 3.95324H4.9978C4.4458 3.95324 3.9978 4.40124 3.9978 4.95324C3.9978 5.50524 4.4458 5.95323 4.9978 5.95323V17.9532C4.9978 20.1432 6.8028 21.9532 8.9978 21.9532H14.9978C17.1928 21.9532 18.9978 20.1482 18.9978 17.9532V5.95323C19.5498 5.95323 19.9978 5.50524 19.9978 4.95324C19.9978 4.40124 19.5498 3.95324 18.9978 3.95324H13.9978C13.9978 2.84824 13.1028 1.95325 11.9978 1.95325ZM6.9978 5.95323H16.9978V17.9532C16.9978 19.0502 16.1078 19.9532 15.0288 19.9532L8.9978 19.9222C7.8958 19.9222 6.9978 19.0322 6.9978 17.9532V5.95323ZM9.9978 7.95323C9.4458 7.95323 8.9978 8.40123 8.9978 8.95323V16.9532C8.9978 17.5052 9.4458 17.9532 9.9978 17.9532C10.5498 17.9532 10.9978 17.5052 10.9978 16.9532V8.95323C10.9978 8.40123 10.5498 7.95323 9.9978 7.95323ZM13.9978 7.95323C13.4458 7.95323 12.9978 8.40123 12.9978 8.95323V16.9532C12.9978 17.5052 13.4458 17.9532 13.9978 17.9532C14.5498 17.9532 14.9978 17.5052 14.9978 16.9532V8.95323C14.9978 8.40123 14.5498 7.95323 13.9978 7.95323Z" fill="white"/>
<path d="M11.9978 1.95325C10.8928 1.95325 9.9978 2.84824 9.9978 3.95324H4.9978C4.4458 3.95324 3.9978 4.40124 3.9978 4.95324C3.9978 5.50524 4.4458 5.95323 4.9978 5.95323V17.9532C4.9978 20.1432 6.8028 21.9532 8.9978 21.9532H14.9978C17.1928 21.9532 18.9978 20.1482 18.9978 17.9532V5.95323C19.5498 5.95323 19.9978 5.50524 19.9978 4.95324C19.9978 4.40124 19.5498 3.95324 18.9978 3.95324H13.9978C13.9978 2.84824 13.1028 1.95325 11.9978 1.95325ZM6.9978 5.95323H16.9978V17.9532C16.9978 19.0502 16.1078 19.9532 15.0288 19.9532L8.9978 19.9222C7.8958 19.9222 6.9978 19.0322 6.9978 17.9532V5.95323ZM9.9978 7.95323C9.4458 7.95323 8.9978 8.40123 8.9978 8.95323V16.9532C8.9978 17.5052 9.4458 17.9532 9.9978 17.9532C10.5498 17.9532 10.9978 17.5052 10.9978 16.9532V8.95323C10.9978 8.40123 10.5498 7.95323 9.9978 7.95323ZM13.9978 7.95323C13.4458 7.95323 12.9978 8.40123 12.9978 8.95323V16.9532C12.9978 17.5052 13.4458 17.9532 13.9978 17.9532C14.5498 17.9532 14.9978 17.5052 14.9978 16.9532V8.95323C14.9978 8.40123 14.5498 7.95323 13.9978 7.95323Z" fill="#4F5AFF" fill-opacity="0.2"/>
</svg>
