<svg width="24" height="24" viewBox="0 0 24 24" fill="none" xmlns="http://www.w3.org/2000/svg">
<path d="M11.9978 1.95325C10.8928 1.95325 9.99781 2.84824 9.99781 3.95324H4.9978C4.4458 3.95324 3.9978 4.40124 3.9978 4.95324C3.9978 5.50524 4.4458 5.95323 4.9978 5.95323H18.9978C19.5498 5.95323 19.9978 5.50524 19.9978 4.95324C19.9978 4.40124 19.5498 3.95324 18.9978 3.95324H13.9978C13.9978 2.84824 13.1028 1.95325 11.9978 1.95325ZM4.9978 7.95323V17.9532C4.9978 20.1432 6.80281 21.9222 8.99781 21.9222L15.0288 21.9532C17.2238 21.9532 18.9978 20.1482 18.9978 17.9532V7.95323H4.9978ZM9.99781 10.9532C10.5498 10.9532 10.9978 11.4012 10.9978 11.9532V17.9532C10.9978 18.5052 10.5498 18.9532 9.99781 18.9532C9.44581 18.9532 8.99781 18.5052 8.99781 17.9532V11.9532C8.99781 11.4012 9.44581 10.9532 9.99781 10.9532ZM13.9978 10.9532C14.5498 10.9532 14.9978 11.4012 14.9978 11.9532V17.9532C14.9978 18.5052 14.5498 18.9532 13.9978 18.9532C13.4458 18.9532 12.9978 18.5052 12.9978 17.9532V11.9532C12.9978 11.4012 13.4458 10.9532 13.9978 10.9532Z" fill="#DCDEE1"/>
</svg>
