<svg width="24" height="24" viewBox="0 0 24 24" fill="none" xmlns="http://www.w3.org/2000/svg">
<path d="M11.9978 1.95337C10.8928 1.95337 9.99782 2.84837 9.99782 3.95336H4.99782C4.44582 3.95336 3.99782 4.40136 3.99782 4.95336C3.99782 5.50536 4.44582 5.95336 4.99782 5.95336H18.9978C19.5498 5.95336 19.9978 5.50536 19.9978 4.95336C19.9978 4.40136 19.5498 3.95336 18.9978 3.95336H13.9978C13.9978 2.84837 13.1028 1.95337 11.9978 1.95337ZM4.99782 7.95335V17.9533C4.99782 20.1433 6.80282 21.9223 8.99782 21.9223L15.0288 21.9533C17.2238 21.9533 18.9978 20.1483 18.9978 17.9533V7.95335H4.99782ZM9.99782 10.9533C10.5498 10.9533 10.9978 11.4013 10.9978 11.9533V17.9533C10.9978 18.5053 10.5498 18.9533 9.99782 18.9533C9.44582 18.9533 8.99782 18.5053 8.99782 17.9533V11.9533C8.99782 11.4013 9.44582 10.9533 9.99782 10.9533ZM13.9978 10.9533C14.5498 10.9533 14.9978 11.4013 14.9978 11.9533V17.9533C14.9978 18.5053 14.5498 18.9533 13.9978 18.9533C13.4458 18.9533 12.9978 18.5053 12.9978 17.9533V11.9533C12.9978 11.4013 13.4458 10.9533 13.9978 10.9533Z" fill="#585B58"/>
</svg>
