<svg width="24" height="24" viewBox="0 0 24 24" fill="none" xmlns="http://www.w3.org/2000/svg">
<path fill-rule="evenodd" clip-rule="evenodd" d="M18.7109 5.29012C17.6551 4.45605 16.3496 4.00169 15.0046 4.00012C14.7356 3.9959 14.4762 4.10045 14.2853 4.29012L5.29991 13.2901C5.15823 13.4286 5.06086 13.6061 5.02018 13.8001L4.02116 18.8001C3.95235 19.1296 4.05372 19.4716 4.29089 19.7101C4.4843 19.9023 4.74774 20.0071 5.02018 20.0001H5.21999L10.2151 19.0001C10.4078 18.9622 10.585 18.8683 10.7246 18.7301L19.71 9.73012C19.902 9.53653 20.0066 9.27283 19.9997 9.00012C19.9981 7.65375 19.5442 6.34703 18.7109 5.29012ZM9.52578 17.0801L6.28894 17.7301L6.93831 14.4901L13.0065 8.42012L15.594 11.0001L9.52578 17.0801ZM17.0026 9.58012L14.4151 7.00012L15.4142 6.00012C16.1 6.03474 16.7603 6.2713 17.3123 6.68012C17.7277 7.24106 17.9676 7.91271 18.0016 8.61012L17.0026 9.58012Z" fill="#929497"/>
</svg>
