<svg width="24" height="24" viewBox="-4 -4 24 24" fill="none" xmlns="http://www.w3.org/2000/svg">
<path fill-rule="evenodd" clip-rule="evenodd" d="M15.9985 4.96845C15.9995 3.62818 15.545 2.32741 14.7097 1.27969C13.6497 0.447356 12.3404 -0.00340914 10.993 0.000119899C10.7225 -0.00146068 10.463 0.106748 10.2737 0.300019L1.2871 9.29497C1.14907 9.43469 1.05524 9.61202 1.01734 9.80479L0.0182408 14.8031C-0.0390862 15.0992 0.0402806 15.4054 0.234221 15.6363C0.428161 15.8673 0.715938 15.9982 1.01734 15.9927C1.08359 16.0026 1.15092 16.0026 1.21717 15.9927L6.21268 14.993C6.40661 14.9588 6.58486 14.8643 6.72223 14.7231L15.7088 5.72819C15.9086 5.52746 16.0139 5.25133 15.9985 4.96845ZM12.9313 5.59823L13.9304 4.59857C13.9065 3.90121 13.6771 3.22649 13.271 2.65922C12.7167 2.25468 12.0576 2.01866 11.3727 1.97945L10.3736 2.97912L12.9313 5.59823Z" fill="white"/>
</svg>
