<svg width="24" height="25" viewBox="0 0 24 25" fill="none" xmlns="http://www.w3.org/2000/svg">
<path fill-rule="evenodd" clip-rule="evenodd" d="M19.9985 8.96835C19.9995 7.62808 19.545 6.32731 18.7097 5.27959C17.6497 4.44726 16.3404 3.99649 14.993 4.00002C14.7225 3.99844 14.463 4.10665 14.2737 4.29992L5.2871 13.2949C5.14907 13.4346 5.05524 13.6119 5.01734 13.8047L4.01824 18.803C3.96091 19.0991 4.04028 19.4053 4.23422 19.6362C4.42816 19.8672 4.71594 19.9981 5.01734 19.9926C5.08359 20.0025 5.15092 20.0025 5.21717 19.9926L10.2127 18.9929C10.4066 18.9587 10.5849 18.8642 10.7222 18.723L19.7088 9.72809C19.9086 9.52736 20.0139 9.25123 19.9985 8.96835ZM16.9313 9.59813L17.9304 8.59847C17.9065 7.90111 17.6771 7.22639 17.271 6.65912C16.7167 6.25458 16.0576 6.01856 15.3727 5.97935L14.3736 6.97902L16.9313 9.59813Z" fill="#4F5AFF"/>
</svg>
