<svg width="24" height="24" viewBox="0 0 24 24" fill="none" xmlns="http://www.w3.org/2000/svg">
<path fill-rule="evenodd" clip-rule="evenodd" d="M19.9985 8.96845C19.9995 7.62818 19.545 6.32741 18.7097 5.27969C17.6497 4.44736 16.3404 3.99659 14.993 4.00012C14.7225 3.99854 14.463 4.10675 14.2737 4.30002L5.2871 13.295C5.14907 13.4347 5.05524 13.612 5.01734 13.8048L4.01824 18.8031C3.96091 19.0992 4.04028 19.4054 4.23422 19.6363C4.42816 19.8673 4.71594 19.9982 5.01734 19.9927C5.08359 20.0026 5.15092 20.0026 5.21717 19.9927L10.2127 18.993C10.4066 18.9588 10.5849 18.8643 10.7222 18.7231L19.7088 9.72819C19.9086 9.52746 20.0139 9.25133 19.9985 8.96845ZM16.9313 9.59823L17.9304 8.59857C17.9065 7.90121 17.6771 7.22649 17.271 6.65922C16.7167 6.25468 16.0576 6.01866 15.3727 5.97945L14.3736 6.97912L16.9313 9.59823Z" fill="white"/>
</svg>
