<svg width="24" height="24" viewBox="0 0 24 24" fill="none" xmlns="http://www.w3.org/2000/svg">
<path d="M9.99836 2.01416C6.43736 2.01416 2.99835 5.41996 2.99835 8.98296C2.99835 8.99326 2.99835 9.00376 2.99835 9.01416C2.99835 11.4742 2.99835 14.4105 2.99835 14.6704C2.99835 16.5342 4.60937 18.0142 6.56037 18.0142H6.99836V18.6704C6.99836 20.5342 8.60937 22.0142 10.5604 22.0142H17.4364C19.3874 22.0142 20.9984 20.5342 20.9984 18.6704V9.35796C20.9984 7.49416 19.3874 6.01416 17.4364 6.01416H16.9984V5.35796C16.9984 3.49416 15.3874 2.01416 13.4364 2.01416C13.2224 2.01416 13.2124 2.01416 9.99836 2.01416ZM8.99836 4.26416V6.67036C8.99836 7.38396 8.32435 8.01416 7.43635 8.01416H5.21735C5.67635 6.24696 7.22636 4.73456 8.99836 4.26416ZM16.9984 8.01416H17.4364C18.3244 8.01416 18.9984 8.64436 18.9984 9.35796V18.6704C18.9984 19.384 18.3244 20.0142 17.4364 20.0142H10.5604C9.67237 20.0142 8.99836 19.384 8.99836 18.6704V18.0142H13.4364C15.3874 18.0142 16.9984 16.5342 16.9984 14.6704V8.01416Z" fill="#292F8E"/>
</svg>
