<svg width="24" height="24" viewBox="0 0 24 24" fill="none" xmlns="http://www.w3.org/2000/svg">
<path d="M2.99997 7C2.99997 4.791 4.79097 3 6.99997 3H8.99997C9.55197 3 9.99998 3.448 9.99998 4C9.99998 4.552 9.55197 5 8.99997 5H6.99997C5.89497 5 4.99997 5.895 4.99997 7V17C4.99997 18.105 5.89497 19 6.99997 19H17C18.105 19 19 18.105 19 17V7C19 5.895 18.105 5 17 5H15C13.895 5 13 5.895 13 7L13 13H16L12 17L7.99997 13H11V7C11 4.791 12.791 3 15 3H17C19.209 3 21 4.791 21 7V17C21 19.209 19.209 21 17 21H6.99997C4.79097 21 2.99997 19.209 2.99997 17V7Z" fill="#4F5AFF"/>
</svg>
