<svg width="24" height="24" viewBox="0 0 24 24" fill="none" xmlns="http://www.w3.org/2000/svg">
<path fill-rule="evenodd" clip-rule="evenodd" d="M14.1312 9.871C13.9198 9.65843 13.6316 9.53857 13.332 9.53857C13.0324 9.53857 12.7442 9.6573 12.5316 9.86987C11.4193 10.9825 9.53821 12.8617 9.53821 12.8617L11.1355 14.4617C11.1355 14.4617 13.0166 12.5813 14.1301 11.4698C14.571 11.0288 14.5721 10.3131 14.1312 9.871Z" fill="#585B58"/>
<path fill-rule="evenodd" clip-rule="evenodd" d="M3.01894 11.4664L9.67821 14.3195L12.5336 20.9811C12.8044 21.6126 13.4313 22.0157 14.1182 21.9995C14.8044 21.9841 15.4129 21.5518 15.6536 20.9095L21.8929 4.27251C22.1244 3.65481 21.9737 2.95865 21.5075 2.49249C21.0414 2.02634 20.3452 1.87557 19.7275 2.10711L3.09047 8.34638C2.44739 8.58715 2.01585 9.19484 2.00047 9.88177C1.98431 10.5687 2.38739 11.1956 3.01894 11.4664ZM3.62509 10.0518C3.57125 10.0287 3.53663 9.97562 3.53817 9.91715C3.53971 9.85869 3.57663 9.80715 3.63125 9.78638L20.2683 3.54789C20.3206 3.52789 20.3798 3.54096 20.419 3.58096C20.459 3.62019 20.4721 3.67942 20.4521 3.73173L14.2136 20.3688C14.1928 20.4234 14.1413 20.4603 14.0828 20.4618C14.0244 20.4634 13.9705 20.4288 13.9475 20.3749C12.8044 17.7072 10.9713 13.431 10.9713 13.431C10.8928 13.2495 10.7482 13.1049 10.5667 13.0264L3.62509 10.0518Z" fill="#585B58" stroke="#585B58" stroke-width="0.5"/>
</svg>
