<svg width="24" height="24" viewBox="0 0 24 24" fill="none" xmlns="http://www.w3.org/2000/svg">
<path fill-rule="evenodd" clip-rule="evenodd" d="M3.01894 11.4664L9.67821 14.3195L12.5336 20.9811C12.8044 21.6126 13.4313 22.0157 14.1182 21.9995C14.8044 21.9841 15.4129 21.5518 15.6536 20.9095L21.8929 4.2725C22.1244 3.65481 21.9737 2.95865 21.5075 2.49249C21.0414 2.02634 20.3452 1.87557 19.7275 2.10711L3.09047 8.34638C2.44739 8.58715 2.01585 9.19484 2.00047 9.88177C1.98431 10.5687 2.38739 11.1956 3.01894 11.4664Z" fill="#292D3F"/>
<path d="M13.2305 10.7694C13.1767 10.7464 22.811 11.7166 13.1186 10.8643C22.811 11.7166 13.1759 10.7902 13.2305 10.7694ZM13.2305 10.7694L20.2683 3.54789C20.3206 3.52789 20.3798 3.54096 20.419 3.58096C20.459 3.62019 13.1386 10.7171 13.1186 10.7694M13.2305 10.7694L10.5667 13.0264M3.01894 11.4664L9.67821 14.3195L12.5336 20.9811C12.8044 21.6126 13.4313 22.0157 14.1182 21.9995C14.8044 21.9841 15.4129 21.5518 15.6536 20.9095L21.8929 4.2725C22.1244 3.65481 21.9737 2.95865 21.5075 2.49249C21.0414 2.02634 20.3452 1.87557 19.7275 2.10711L3.09047 8.34638C2.44739 8.58715 2.01585 9.19484 2.00047 9.88177C1.98431 10.5687 2.38739 11.1956 3.01894 11.4664Z" stroke="#292D3F" stroke-width="0.5"/>
<path d="M13.7766 10.2236L13.7771 10.2241C14.0229 10.4705 14.0225 10.8699 13.7767 11.116C13.2198 11.6719 12.4712 12.4199 11.8617 13.0289L11.0933 13.7969L10.865 14.0251L10.8033 14.0867L10.7874 14.1026L10.7833 14.1067L10.7823 14.1077L10.782 14.108L10.782 14.108L11.1354 14.4617L10.7819 14.1081L10.7756 14.1144L10.7694 14.1211L10.1358 14.802L9.9056 14.2936L9.82614 14.1181L9.64946 14.0413L9.20422 13.8478L9.87648 13.2298L9.88413 13.2228L9.89149 13.2155L9.53811 12.8617L9.89151 13.2154L9.89158 13.2154L9.89183 13.2151L9.89286 13.2141L9.89692 13.21L9.91289 13.1941L9.9745 13.1325L10.2028 12.9044L10.9711 12.1367C11.5804 11.5278 12.3289 10.7798 12.8851 10.2234C13.0035 10.105 13.1644 10.0386 13.3319 10.0386C13.4983 10.0386 13.659 10.1053 13.7766 10.2236Z" fill="white" stroke="white"/>
</svg>
