<svg fill="none" height="24" viewBox="0 0 24 24" width="24" xmlns="http://www.w3.org/2000/svg">
<path d="M8.9679 2.45547C7.5499 2.90547 6.3269 3.63947 5.2489 4.64347C4.9159 4.95347 4.81391 5.46147 5.02991 5.86147C5.83091 7.34247 4.9929 8.92747 3.1859 9.01847C2.7439 9.04047 2.3529 9.36848 2.2489 9.79948C2.0699 10.5445 1.9989 11.1685 1.9989 11.9865C1.9989 12.6735 2.0729 13.4515 2.2179 14.1435C2.3079 14.5755 2.6839 14.8865 3.1239 14.9245C4.9419 15.0815 5.84191 16.4685 5.02991 18.2365C4.84991 18.6295 4.9319 19.0995 5.2489 19.3935C6.3109 20.3755 7.5309 21.0685 8.9679 21.5185C9.3779 21.6465 9.8409 21.4915 10.0929 21.1435C11.2049 19.6045 12.8179 19.5995 13.8739 21.1435C14.1229 21.5065 14.5789 21.6815 14.9989 21.5495C16.3859 21.1125 17.6779 20.3695 18.7489 19.3935C19.0789 19.0925 19.1659 18.6055 18.9679 18.2055C18.1359 16.5265 19.0929 14.9855 20.8109 14.9555C21.2669 14.9475 21.6729 14.6485 21.7799 14.2055C21.9529 13.4885 21.9989 12.8645 21.9989 11.9865C21.9989 11.2325 21.9099 10.4895 21.7489 9.76847C21.6469 9.31147 21.2479 8.98747 20.7799 8.98647C19.0889 8.98347 18.1409 7.32147 18.9679 5.86147C19.1979 5.45547 19.1259 4.95747 18.7799 4.64347C17.6899 3.65347 16.3609 2.87947 14.9679 2.45547C14.5399 2.32547 14.0849 2.48547 13.8429 2.86147C12.8769 4.36247 11.0729 4.38847 10.1239 2.89347C9.8809 2.50947 9.3999 2.31847 8.9679 2.45547ZM15.0459 4.57947C15.7289 4.86547 16.2679 5.16448 16.8869 5.63348C16.1609 7.93048 17.3919 10.3165 19.9419 10.8975C20.0049 11.3105 19.9989 11.5605 19.9989 11.9865C19.9989 12.4955 20.0059 12.6745 19.9479 13.0425C17.4089 13.5685 16.1529 15.8875 16.8599 18.3385C16.2519 18.7795 15.8169 19.0855 15.0539 19.3805C13.2619 17.5565 10.7739 17.4765 8.94391 19.3925C8.22991 19.0785 7.68092 18.7995 7.12592 18.3305C7.81392 15.8415 6.65091 13.6925 4.06891 13.0405C3.95391 12.5845 3.9999 11.2965 4.0659 10.9055C6.7359 10.2655 7.78791 7.90247 7.12491 5.62647C7.71091 5.18547 8.23791 4.86448 8.92291 4.58648C10.6479 6.34148 13.2379 6.51648 15.0459 4.57947ZM11.9989 7.98647C9.7899 7.98647 7.9989 9.77747 7.9989 11.9865C7.9989 14.1965 9.7899 15.9865 11.9989 15.9865C14.2079 15.9865 15.9989 14.1965 15.9989 11.9865C15.9989 9.77747 14.2079 7.98647 11.9989 7.98647ZM11.9989 9.98647C13.1039 9.98647 13.9989 10.8825 13.9989 11.9865C13.9989 13.0915 13.1039 13.9865 11.9989 13.9865C10.8939 13.9865 9.9989 13.0915 9.9989 11.9865C9.9989 10.8825 10.8939 9.98647 11.9989 9.98647Z" fill="#DCDEE1" />
</svg>