<svg width="24" height="24" viewBox="0 0 24 24" fill="none" xmlns="http://www.w3.org/2000/svg">
<path d="M8.9679 2.45544C7.5499 2.90544 6.3269 3.63945 5.2489 4.64345C4.9159 4.95345 4.81391 5.46145 5.02991 5.86145C5.83091 7.34245 4.9929 8.92745 3.1859 9.01845C2.7439 9.04045 2.3529 9.36845 2.2489 9.79945C2.0699 10.5445 1.9989 11.1685 1.9989 11.9865C1.9989 12.6735 2.0729 13.4514 2.2179 14.1434C2.3079 14.5754 2.6839 14.8865 3.1239 14.9245C4.9419 15.0815 5.84191 16.4685 5.02991 18.2365C4.84991 18.6295 4.9319 19.0994 5.2489 19.3934C6.3109 20.3755 7.5309 21.0685 8.9679 21.5184C9.3779 21.6465 9.8409 21.4915 10.0929 21.1434C11.2049 19.6045 12.8179 19.5994 13.8739 21.1434C14.1229 21.5065 14.5789 21.6815 14.9989 21.5495C16.3859 21.1125 17.6779 20.3694 18.7489 19.3934C19.0789 19.0924 19.1659 18.6054 18.9679 18.2054C18.1359 16.5264 19.0929 14.9854 20.8109 14.9554C21.2669 14.9474 21.6729 14.6484 21.7799 14.2054C21.9529 13.4884 21.9989 12.8645 21.9989 11.9865C21.9989 11.2325 21.9099 10.4894 21.7489 9.76845C21.6469 9.31145 21.2479 8.98745 20.7799 8.98645C19.0889 8.98345 18.1409 7.32145 18.9679 5.86145C19.1979 5.45545 19.1259 4.95745 18.7799 4.64345C17.6899 3.65345 16.3609 2.87944 14.9679 2.45544C14.5399 2.32544 14.0849 2.48545 13.8429 2.86145C12.8769 4.36245 11.0729 4.38845 10.1239 2.89345C9.8809 2.50945 9.3999 2.31844 8.9679 2.45544ZM15.0459 4.57945C15.7289 4.86545 16.2679 5.16445 16.8869 5.63345C16.1609 7.93045 17.3919 10.3164 19.9419 10.8974C20.0049 11.3104 19.9989 11.5605 19.9989 11.9865C19.9989 12.4955 20.0059 12.6745 19.9479 13.0425C17.4089 13.5685 16.1529 15.8875 16.8599 18.3385C16.2519 18.7795 15.8169 19.0854 15.0539 19.3804C13.2619 17.5564 10.7739 17.4765 8.94391 19.3925C8.22991 19.0785 7.68092 18.7994 7.12592 18.3304C7.81392 15.8414 6.65091 13.6925 4.06891 13.0405C3.95391 12.5845 3.9999 11.2965 4.0659 10.9055C6.7359 10.2655 7.78791 7.90245 7.12491 5.62645C7.71091 5.18545 8.23791 4.86446 8.92291 4.58646C10.6479 6.34146 13.2379 6.51645 15.0459 4.57945ZM11.9989 7.98645C9.7899 7.98645 7.9989 9.77745 7.9989 11.9865C7.9989 14.1965 9.7899 15.9865 11.9989 15.9865C14.2079 15.9865 15.9989 14.1965 15.9989 11.9865C15.9989 9.77745 14.2079 7.98645 11.9989 7.98645ZM11.9989 9.98645C13.1039 9.98645 13.9989 10.8825 13.9989 11.9865C13.9989 13.0915 13.1039 13.9865 11.9989 13.9865C10.8939 13.9865 9.9989 13.0915 9.9989 11.9865C9.9989 10.8825 10.8939 9.98645 11.9989 9.98645Z" fill="white"/>
<path d="M8.9679 2.45544C7.5499 2.90544 6.3269 3.63945 5.2489 4.64345C4.9159 4.95345 4.81391 5.46145 5.02991 5.86145C5.83091 7.34245 4.9929 8.92745 3.1859 9.01845C2.7439 9.04045 2.3529 9.36845 2.2489 9.79945C2.0699 10.5445 1.9989 11.1685 1.9989 11.9865C1.9989 12.6735 2.0729 13.4514 2.2179 14.1434C2.3079 14.5754 2.6839 14.8865 3.1239 14.9245C4.9419 15.0815 5.84191 16.4685 5.02991 18.2365C4.84991 18.6295 4.9319 19.0994 5.2489 19.3934C6.3109 20.3755 7.5309 21.0685 8.9679 21.5184C9.3779 21.6465 9.8409 21.4915 10.0929 21.1434C11.2049 19.6045 12.8179 19.5994 13.8739 21.1434C14.1229 21.5065 14.5789 21.6815 14.9989 21.5495C16.3859 21.1125 17.6779 20.3694 18.7489 19.3934C19.0789 19.0924 19.1659 18.6054 18.9679 18.2054C18.1359 16.5264 19.0929 14.9854 20.8109 14.9554C21.2669 14.9474 21.6729 14.6484 21.7799 14.2054C21.9529 13.4884 21.9989 12.8645 21.9989 11.9865C21.9989 11.2325 21.9099 10.4894 21.7489 9.76845C21.6469 9.31145 21.2479 8.98745 20.7799 8.98645C19.0889 8.98345 18.1409 7.32145 18.9679 5.86145C19.1979 5.45545 19.1259 4.95745 18.7799 4.64345C17.6899 3.65345 16.3609 2.87944 14.9679 2.45544C14.5399 2.32544 14.0849 2.48545 13.8429 2.86145C12.8769 4.36245 11.0729 4.38845 10.1239 2.89345C9.8809 2.50945 9.3999 2.31844 8.9679 2.45544ZM15.0459 4.57945C15.7289 4.86545 16.2679 5.16445 16.8869 5.63345C16.1609 7.93045 17.3919 10.3164 19.9419 10.8974C20.0049 11.3104 19.9989 11.5605 19.9989 11.9865C19.9989 12.4955 20.0059 12.6745 19.9479 13.0425C17.4089 13.5685 16.1529 15.8875 16.8599 18.3385C16.2519 18.7795 15.8169 19.0854 15.0539 19.3804C13.2619 17.5564 10.7739 17.4765 8.94391 19.3925C8.22991 19.0785 7.68092 18.7994 7.12592 18.3304C7.81392 15.8414 6.65091 13.6925 4.06891 13.0405C3.95391 12.5845 3.9999 11.2965 4.0659 10.9055C6.7359 10.2655 7.78791 7.90245 7.12491 5.62645C7.71091 5.18545 8.23791 4.86446 8.92291 4.58646C10.6479 6.34146 13.2379 6.51645 15.0459 4.57945ZM11.9989 7.98645C9.7899 7.98645 7.9989 9.77745 7.9989 11.9865C7.9989 14.1965 9.7899 15.9865 11.9989 15.9865C14.2079 15.9865 15.9989 14.1965 15.9989 11.9865C15.9989 9.77745 14.2079 7.98645 11.9989 7.98645ZM11.9989 9.98645C13.1039 9.98645 13.9989 10.8825 13.9989 11.9865C13.9989 13.0915 13.1039 13.9865 11.9989 13.9865C10.8939 13.9865 9.9989 13.0915 9.9989 11.9865C9.9989 10.8825 10.8939 9.98645 11.9989 9.98645Z" fill="#4F5AFF" fill-opacity="0.2"/>
</svg>
