<svg width="24" height="24" viewBox="0 0 24 24" fill="none" xmlns="http://www.w3.org/2000/svg">
<path d="M8.9679 2.45552C7.5499 2.90452 6.3269 3.63954 5.2489 4.64253C4.9159 4.95353 4.81391 5.46053 5.02991 5.86153C5.83091 7.34253 4.99289 8.92653 3.18689 9.01753C2.74389 9.04053 2.3529 9.36752 2.2489 9.79852C2.0699 10.5435 1.9989 11.1675 1.9989 11.9865C1.9989 12.6735 2.0729 13.4505 2.2179 14.1425C2.3079 14.5745 2.6839 14.8855 3.1239 14.9245C4.9419 15.0815 5.84191 16.4675 5.02991 18.2365C4.84991 18.6295 4.9319 19.0995 5.2489 19.3925C6.3109 20.3755 7.5309 21.0675 8.9679 21.5175C9.3779 21.6465 9.8409 21.4915 10.0929 21.1425C11.2049 19.6045 12.8179 19.5985 13.8739 21.1425C14.1229 21.5065 14.5789 21.6815 14.9989 21.5485C16.3859 21.1125 17.6779 20.3695 18.7489 19.3925C19.0789 19.0925 19.1659 18.6055 18.9679 18.2055C18.1359 16.5265 19.0929 14.9845 20.8109 14.9555C21.2669 14.9475 21.6729 14.6475 21.7799 14.2055C21.9529 13.4885 21.9989 12.8635 21.9989 11.9865C21.9989 11.2325 21.9099 10.4895 21.7489 9.76753C21.6469 9.31153 21.2479 8.98753 20.7799 8.98653C19.0889 8.98353 18.1409 7.32153 18.9679 5.86153C19.1979 5.45453 19.1259 4.95653 18.7799 4.64253C17.6899 3.65254 16.3609 2.87952 14.9679 2.45552C14.5399 2.32552 14.0849 2.48553 13.8429 2.86153C12.8769 4.36153 11.0729 4.38854 10.1239 2.89254C9.8809 2.50954 9.3999 2.31752 8.9679 2.45552ZM11.9989 7.98653C14.2079 7.98653 15.9989 9.77753 15.9989 11.9865C15.9989 14.1955 14.2079 15.9865 11.9989 15.9865C9.7899 15.9865 7.9989 14.1955 7.9989 11.9865C7.9989 9.77753 9.7899 7.98653 11.9989 7.98653Z" fill="white"/>
</svg>
