<svg width="16" height="16" viewBox="0 0 16 16" fill="none" xmlns="http://www.w3.org/2000/svg">
<g clip-path="url(#clip0_1747_3165)">
<path fill-rule="evenodd" clip-rule="evenodd" d="M16 8.00058C15.9992 8.19137 15.9235 8.3742 15.7891 8.50967L8.51636 15.7824C8.38031 15.9212 8.19436 15.9998 8 16.0006C7.80921 15.9998 7.62637 15.924 7.49091 15.7897L0.218182 8.51694C0.0793777 8.38089 0.000806854 8.19494 0 8.00058C0.000806854 7.80622 0.0793777 7.62027 0.218182 7.48421L7.49091 0.211486C7.77457 -0.0704952 8.2327 -0.0704952 8.51636 0.211486L15.7891 7.48421C15.9252 7.62146 16.0011 7.80727 16 8.00058Z" fill="#CC0000"/>
<path fill-rule="evenodd" clip-rule="evenodd" d="M7.27246 8.00062C7.27246 8.40228 7.59807 8.72789 7.99973 8.72789C8.4014 8.72789 8.72701 8.40228 8.72701 8.00062V5.09153C8.72701 4.68987 8.4014 4.36426 7.99973 4.36426C7.59807 4.36426 7.27246 4.68987 7.27246 5.09153V8.00062ZM7.99973 10.9097C8.4014 10.9097 8.72701 10.5841 8.72701 10.1824C8.72701 9.78078 8.4014 9.45517 7.99973 9.45517C7.59807 9.45517 7.27246 9.78078 7.27246 10.1824C7.27246 10.5841 7.59807 10.9097 7.99973 10.9097Z" fill="white"/>
</g>
<defs>
<clipPath id="clip0_1747_3165">
<rect width="16" height="16" fill="white"/>
</clipPath>
</defs>
</svg>
