<svg width="16" height="16" viewBox="0 0 16 16" fill="none" xmlns="http://www.w3.org/2000/svg">
<g clip-path="url(#clip0_1924_1661)">
<path fill-rule="evenodd" clip-rule="evenodd" d="M5.39366 6.23317C5.40319 5.87621 5.51419 5.52935 5.71366 5.23317C5.95095 4.87326 6.28007 4.58326 6.66699 4.39317C7.10367 4.16148 7.59284 4.04666 8.08699 4.05984C8.54622 4.05083 9.00169 4.1442 9.42033 4.33317C9.78307 4.49837 10.0925 4.76159 10.3137 5.09317C10.5227 5.39965 10.6343 5.76217 10.6337 6.13317C10.6399 6.40413 10.578 6.67232 10.4537 6.91317C10.3394 7.12358 10.1957 7.31663 10.027 7.4865C9.86032 7.6465 9.56033 7.91984 9.13366 8.29984C9.03508 8.39012 8.9416 8.48582 8.85366 8.5865C8.79055 8.65221 8.73672 8.72622 8.69366 8.8065C8.66234 8.8735 8.63562 8.94255 8.61366 9.01317C8.61366 9.07984 8.56699 9.19984 8.52699 9.3665C8.51845 9.52166 8.44801 9.66689 8.33146 9.76966C8.2149 9.87242 8.06199 9.92412 7.90699 9.91317C7.73764 9.91763 7.57383 9.85259 7.45366 9.73317C7.31732 9.59342 7.24909 9.40092 7.26699 9.2065C7.26255 8.94915 7.30782 8.69336 7.40033 8.45317C7.48842 8.24581 7.61005 8.05436 7.76033 7.8865C7.91366 7.7265 8.11366 7.53317 8.36699 7.31317C8.62033 7.09317 8.74699 6.97317 8.84699 6.87317C8.94591 6.77384 9.03111 6.66174 9.10033 6.53984C9.16691 6.4195 9.20136 6.28403 9.20033 6.1465C9.20292 5.87673 9.08866 5.61904 8.88699 5.43984C8.66653 5.24594 8.38043 5.14342 8.08699 5.15317C7.77818 5.12829 7.47319 5.2348 7.24699 5.4465C7.03511 5.69527 6.87834 5.9861 6.78699 6.29984C6.66699 6.6865 6.44699 6.8865 6.12033 6.8865C5.92067 6.89583 5.72736 6.81508 5.59366 6.6665C5.4758 6.55169 5.40457 6.39735 5.39366 6.23317ZM7.94032 11.9398C7.73562 11.9431 7.53667 11.872 7.38032 11.7398C7.0738 11.4242 7.0738 10.9221 7.38032 10.6065C7.53211 10.4602 7.73626 10.3809 7.94699 10.3865C8.15319 10.3829 8.35202 10.4632 8.49785 10.609C8.64367 10.7548 8.72398 10.9536 8.72033 11.1598C8.73097 11.376 8.64557 11.5859 8.48699 11.7332C8.33771 11.8691 8.14221 11.943 7.94032 11.9398ZM8.00033 15.3332C3.95024 15.3332 0.666992 12.0499 0.666992 7.99984C0.666992 3.94975 3.95024 0.666504 8.00033 0.666504C12.0504 0.666504 15.3337 3.94975 15.3337 7.99984C15.3337 12.0499 12.0504 15.3332 8.00033 15.3332ZM8.00033 1.99984C4.68662 1.99984 2.00033 4.68613 2.00033 7.99984C2.00033 11.3135 4.68662 13.9998 8.00033 13.9998C11.314 13.9998 14.0003 11.3135 14.0003 7.99984C14.0003 6.40854 13.3682 4.88241 12.243 3.7572C11.1177 2.63198 9.59162 1.99984 8.00033 1.99984Z" fill="#585B58"/>
<path fill-rule="evenodd" clip-rule="evenodd" d="M5.39366 6.23317C5.40319 5.87621 5.51419 5.52935 5.71366 5.23317C5.95095 4.87326 6.28007 4.58326 6.66699 4.39317C7.10367 4.16148 7.59284 4.04666 8.08699 4.05984C8.54622 4.05083 9.00169 4.1442 9.42033 4.33317C9.78307 4.49837 10.0925 4.76159 10.3137 5.09317C10.5227 5.39965 10.6343 5.76217 10.6337 6.13317C10.6399 6.40413 10.578 6.67232 10.4537 6.91317C10.3394 7.12358 10.1957 7.31663 10.027 7.4865C9.86032 7.6465 9.56033 7.91984 9.13366 8.29984C9.03508 8.39012 8.9416 8.48582 8.85366 8.5865C8.79055 8.65221 8.73672 8.72622 8.69366 8.8065C8.66234 8.8735 8.63562 8.94255 8.61366 9.01317C8.61366 9.07984 8.56699 9.19984 8.52699 9.3665C8.51845 9.52166 8.44801 9.66689 8.33146 9.76966C8.2149 9.87242 8.06199 9.92412 7.90699 9.91317C7.73764 9.91763 7.57383 9.85259 7.45366 9.73317C7.31732 9.59342 7.24909 9.40092 7.26699 9.2065C7.26255 8.94915 7.30782 8.69336 7.40033 8.45317C7.48842 8.24581 7.61005 8.05436 7.76033 7.8865C7.91366 7.7265 8.11366 7.53317 8.36699 7.31317C8.62033 7.09317 8.74699 6.97317 8.84699 6.87317C8.94591 6.77384 9.03111 6.66174 9.10033 6.53984C9.16691 6.4195 9.20136 6.28403 9.20033 6.1465C9.20292 5.87673 9.08866 5.61904 8.88699 5.43984C8.66653 5.24594 8.38043 5.14342 8.08699 5.15317C7.77818 5.12829 7.47319 5.2348 7.24699 5.4465C7.03511 5.69527 6.87834 5.9861 6.78699 6.29984C6.66699 6.6865 6.44699 6.8865 6.12033 6.8865C5.92067 6.89583 5.72736 6.81508 5.59366 6.6665C5.4758 6.55169 5.40457 6.39735 5.39366 6.23317ZM7.94032 11.9398C7.73562 11.9431 7.53667 11.872 7.38032 11.7398C7.0738 11.4242 7.0738 10.9221 7.38032 10.6065C7.53211 10.4602 7.73626 10.3809 7.94699 10.3865C8.15319 10.3829 8.35202 10.4632 8.49785 10.609C8.64367 10.7548 8.72398 10.9536 8.72033 11.1598C8.73097 11.376 8.64557 11.5859 8.48699 11.7332C8.33771 11.8691 8.14221 11.943 7.94032 11.9398ZM8.00033 15.3332C3.95024 15.3332 0.666992 12.0499 0.666992 7.99984C0.666992 3.94975 3.95024 0.666504 8.00033 0.666504C12.0504 0.666504 15.3337 3.94975 15.3337 7.99984C15.3337 12.0499 12.0504 15.3332 8.00033 15.3332ZM8.00033 1.99984C4.68662 1.99984 2.00033 4.68613 2.00033 7.99984C2.00033 11.3135 4.68662 13.9998 8.00033 13.9998C11.314 13.9998 14.0003 11.3135 14.0003 7.99984C14.0003 6.40854 13.3682 4.88241 12.243 3.7572C11.1177 2.63198 9.59162 1.99984 8.00033 1.99984Z" fill="black" fill-opacity="0.2"/>
</g>
<defs>
<clipPath id="clip0_1924_1661">
<rect width="16" height="16" fill="white"/>
</clipPath>
</defs>
</svg>
