<svg width="24" height="24" viewBox="0 0 24 24" fill="none" xmlns="http://www.w3.org/2000/svg">
<path fill-rule="evenodd" clip-rule="evenodd" d="M3.9668 5.39016C3.77766 5.20254 3.67127 4.94713 3.67127 4.6807C3.67127 4.41426 3.77766 4.15886 3.9668 3.97124C4.1544 3.78207 4.40977 3.67566 4.67617 3.67566C4.94257 3.67566 5.19794 3.78207 5.38554 3.97124L11.9997 10.586L18.6139 3.97124C18.8015 3.78207 19.0568 3.67566 19.3232 3.67566C19.5896 3.67566 19.845 3.78207 20.0326 3.97124C20.2217 4.15886 20.3281 4.41426 20.3281 4.6807C20.3281 4.94713 20.2217 5.20254 20.0326 5.39016L13.4184 12.0049L20.0326 18.6197C20.4244 19.0116 20.4244 19.6468 20.0326 20.0387C19.6408 20.4305 19.0056 20.4305 18.6139 20.0387L11.9997 13.4239L5.38554 20.0387C4.99377 20.4305 4.35858 20.4305 3.9668 20.0387C3.57503 19.6468 3.57503 19.0116 3.9668 18.6197L10.581 12.0049L3.9668 5.39016Z" fill="#585B58"/>
<path fill-rule="evenodd" clip-rule="evenodd" d="M3.9668 5.39016C3.77766 5.20254 3.67127 4.94713 3.67127 4.6807C3.67127 4.41426 3.77766 4.15886 3.9668 3.97124C4.1544 3.78207 4.40977 3.67566 4.67617 3.67566C4.94257 3.67566 5.19794 3.78207 5.38554 3.97124L11.9997 10.586L18.6139 3.97124C18.8015 3.78207 19.0568 3.67566 19.3232 3.67566C19.5896 3.67566 19.845 3.78207 20.0326 3.97124C20.2217 4.15886 20.3281 4.41426 20.3281 4.6807C20.3281 4.94713 20.2217 5.20254 20.0326 5.39016L13.4184 12.0049L20.0326 18.6197C20.4244 19.0116 20.4244 19.6468 20.0326 20.0387C19.6408 20.4305 19.0056 20.4305 18.6139 20.0387L11.9997 13.4239L5.38554 20.0387C4.99377 20.4305 4.35858 20.4305 3.9668 20.0387C3.57503 19.6468 3.57503 19.0116 3.9668 18.6197L10.581 12.0049L3.9668 5.39016Z" fill="black" fill-opacity="0.2"/>
</svg>
