<svg width="22" height="22" viewBox="0 0 22 22" fill="none" xmlns="http://www.w3.org/2000/svg">
<rect width="22" height="22" fill="white"/>
<path d="M6.55579 12.6163V17.5493C6.55579 18.2541 7.35782 18.5561 7.85908 18.0527L10.1649 15.3345L14.8768 18.8581C15.2778 19.1601 15.8793 18.9588 15.9796 18.4554L18.9872 3.85776C19.0874 3.25372 18.5862 2.85103 17.9846 3.05238L3.44795 8.89143C2.94668 9.09278 2.84643 9.79749 3.24744 10.2002L4.85149 11.4083L9.46313 9.19345C9.86414 8.99211 10.1649 9.49547 9.86414 9.69682L6.55579 12.6163Z" fill="#929497"/>
<g clip-path="url(#clip0_2299_4564)">
<path d="M6.60053 12.5999V17.4999C6.60053 18.1999 7.40053 18.4999 7.90053 17.9999L10.2005 15.2999L14.9005 18.7999C15.3005 19.0999 15.9005 18.8999 16.0005 18.3999L19.0005 3.89988C19.1005 3.29988 18.6005 2.89988 18.0005 3.09988L3.50053 8.89988C3.00053 9.09988 2.90053 9.79988 3.30053 10.1999L4.90053 11.3999L9.50053 9.19988C9.90053 8.99988 10.2005 9.49988 9.90053 9.69988L6.60053 12.5999Z" fill="#4F5AFF"/>
</g>
<defs>
<clipPath id="clip0_2299_4564">
<rect width="16" height="16" fill="white" transform="translate(3 3)"/>
</clipPath>
</defs>
</svg>
