<svg width="14" height="8" viewBox="0 0 14 8" fill="none" xmlns="http://www.w3.org/2000/svg">
<g opacity="0.5">
<path d="M1.25 3.25C1.94036 3.25 2.5 2.69036 2.5 2C2.5 1.30964 1.94036 0.75 1.25 0.75C0.559644 0.75 0 1.30964 0 2C0 2.69036 0.559644 3.25 1.25 3.25Z" fill="#EDEFF2"/>
<path d="M5.05005 3.25C5.7404 3.25 6.30005 2.69036 6.30005 2C6.30005 1.30964 5.7404 0.75 5.05005 0.75C4.35969 0.75 3.80005 1.30964 3.80005 2C3.80005 2.69036 4.35969 3.25 5.05005 3.25Z" fill="#EDEFF2"/>
<path d="M8.8501 3.25C9.54045 3.25 10.1001 2.69036 10.1001 2C10.1001 1.30964 9.54045 0.75 8.8501 0.75C8.15974 0.75 7.6001 1.30964 7.6001 2C7.6001 2.69036 8.15974 3.25 8.8501 3.25Z" fill="#EDEFF2"/>
<path d="M12.6499 3.25C13.3403 3.25 13.8999 2.69036 13.8999 2C13.8999 1.30964 13.3403 0.75 12.6499 0.75C11.9595 0.75 11.3999 1.30964 11.3999 2C11.3999 2.69036 11.9595 3.25 12.6499 3.25Z" fill="#EDEFF2"/>
<path d="M1.25 7.05C1.94036 7.05 2.5 6.49036 2.5 5.8C2.5 5.10965 1.94036 4.55 1.25 4.55C0.559644 4.55 0 5.10965 0 5.8C0 6.49036 0.559644 7.05 1.25 7.05Z" fill="#EDEFF2"/>
<path d="M5.05005 7.05C5.7404 7.05 6.30005 6.49036 6.30005 5.8C6.30005 5.10965 5.7404 4.55 5.05005 4.55C4.35969 4.55 3.80005 5.10965 3.80005 5.8C3.80005 6.49036 4.35969 7.05 5.05005 7.05Z" fill="#EDEFF2"/>
<path d="M8.8501 7.05C9.54045 7.05 10.1001 6.49036 10.1001 5.8C10.1001 5.10965 9.54045 4.55 8.8501 4.55C8.15974 4.55 7.6001 5.10965 7.6001 5.8C7.6001 6.49036 8.15974 7.05 8.8501 7.05Z" fill="#EDEFF2"/>
<path d="M12.6499 7.05C13.3403 7.05 13.8999 6.49036 13.8999 5.8C13.8999 5.10965 13.3403 4.55 12.6499 4.55C11.9595 4.55 11.3999 5.10965 11.3999 5.8C11.3999 6.49036 11.9595 7.05 12.6499 7.05Z" fill="#EDEFF2"/>
</g>
</svg>
