<svg width="24" height="24" viewBox="0 0 24 24" fill="none" xmlns="http://www.w3.org/2000/svg">
<path fill-rule="evenodd" clip-rule="evenodd" d="M20.6897 14.0623C19.8895 15.062 19.1194 15.9917 12.6081 21.2801C12.4294 21.4233 12.207 21.501 11.978 21.5C11.7489 21.501 11.5265 21.4233 11.3478 21.2801C4.86654 16.0017 4.07639 15.0719 3.24622 14.0523C1.64524 12.2866 0.842153 9.94003 1.02579 7.56423C1.23027 5.92968 2.09832 4.45112 3.42626 3.47548C5.84674 1.72601 9.25741 2.38581 11.978 5.00501C14.7185 2.4058 18.1192 1.746 20.5096 3.47548C21.8766 4.4395 22.7735 5.93488 22.9801 7.59422C23.1417 9.97368 22.3129 12.3142 20.6897 14.0623Z" fill="white"/>
<path fill-rule="evenodd" clip-rule="evenodd" d="M20.6897 14.0623C19.8895 15.062 19.1194 15.9917 12.6081 21.2801C12.4294 21.4233 12.207 21.501 11.978 21.5C11.7489 21.501 11.5265 21.4233 11.3478 21.2801C4.86654 16.0017 4.07639 15.0719 3.24622 14.0523C1.64524 12.2866 0.842153 9.94003 1.02579 7.56423C1.23027 5.92968 2.09832 4.45112 3.42626 3.47548C5.84674 1.72601 9.25741 2.38581 11.978 5.00501C14.7185 2.4058 18.1192 1.746 20.5096 3.47548C21.8766 4.4395 22.7735 5.93488 22.9801 7.59422C23.1417 9.97368 22.3129 12.3142 20.6897 14.0623Z" fill="#4F5AFF" fill-opacity="0.2"/>
</svg>
